<mxfile host="app.diagrams.net" modified="2023-06-27T09:49:46.435Z" agent="Mozilla/5.0 (Windows NT 10.0; Win64; x64) AppleWebKit/537.36 (KHTML, like Gecko) Chrome/114.0.0.0 Safari/537.36" etag="YT2-xnt82kOSPD3ZIYG5" version="21.5.0" type="github" pages="6">
  <diagram id="C5RBs43oDa-KdzZeNtuy" name="Page-1">
    <mxGraphModel dx="542" dy="445" grid="0" gridSize="10" guides="1" tooltips="1" connect="1" arrows="1" fold="1" page="0" pageScale="1" pageWidth="827" pageHeight="1169" math="0" shadow="0">
      <root>
        <mxCell id="WIyWlLk6GJQsqaUBKTNV-0" />
        <mxCell id="WIyWlLk6GJQsqaUBKTNV-1" parent="WIyWlLk6GJQsqaUBKTNV-0" />
        <mxCell id="Ql_LzicgHUzbhHf-Kg4L-0" value="Akzeptanz&lt;br&gt;&amp;nbsp;von KI-Chatbots&lt;br&gt;(Nutzungsabsicht)" style="rounded=0;whiteSpace=wrap;html=1;" parent="WIyWlLk6GJQsqaUBKTNV-1" vertex="1">
          <mxGeometry x="762.5" y="250" width="130" height="70" as="geometry" />
        </mxCell>
        <mxCell id="Ql_LzicgHUzbhHf-Kg4L-37" style="edgeStyle=orthogonalEdgeStyle;rounded=0;orthogonalLoop=1;jettySize=auto;html=1;entryX=0.5;entryY=1;entryDx=0;entryDy=0;" parent="WIyWlLk6GJQsqaUBKTNV-1" source="Ql_LzicgHUzbhHf-Kg4L-5" target="Ql_LzicgHUzbhHf-Kg4L-0" edge="1">
          <mxGeometry relative="1" as="geometry" />
        </mxCell>
        <mxCell id="dUppWGkDrvd4niz2tAxq-10" value="" style="edgeStyle=orthogonalEdgeStyle;rounded=0;orthogonalLoop=1;jettySize=auto;html=1;" parent="WIyWlLk6GJQsqaUBKTNV-1" source="Ql_LzicgHUzbhHf-Kg4L-5" target="Ql_LzicgHUzbhHf-Kg4L-0" edge="1">
          <mxGeometry relative="1" as="geometry" />
        </mxCell>
        <mxCell id="Ql_LzicgHUzbhHf-Kg4L-5" value="Relationale Elemente" style="swimlane;whiteSpace=wrap;html=1;fillColor=#E6E6E6;strokeColor=#000000;" parent="WIyWlLk6GJQsqaUBKTNV-1" vertex="1">
          <mxGeometry x="580" y="413" width="495" height="90" as="geometry" />
        </mxCell>
        <mxCell id="Ql_LzicgHUzbhHf-Kg4L-1" value="Datenschutz-bedenken" style="rounded=0;whiteSpace=wrap;html=1;" parent="Ql_LzicgHUzbhHf-Kg4L-5" vertex="1">
          <mxGeometry x="255" y="35" width="110" height="45" as="geometry" />
        </mxCell>
        <mxCell id="Ql_LzicgHUzbhHf-Kg4L-4" value="Beziehungsaufbau" style="rounded=0;whiteSpace=wrap;html=1;" parent="Ql_LzicgHUzbhHf-Kg4L-5" vertex="1">
          <mxGeometry x="135" y="35" width="110" height="45" as="geometry" />
        </mxCell>
        <mxCell id="Ql_LzicgHUzbhHf-Kg4L-3" value="Vertrauen" style="rounded=0;whiteSpace=wrap;html=1;" parent="Ql_LzicgHUzbhHf-Kg4L-5" vertex="1">
          <mxGeometry x="15" y="35" width="110" height="45" as="geometry" />
        </mxCell>
        <mxCell id="Ql_LzicgHUzbhHf-Kg4L-10" value="Angst vor KI" style="rounded=0;whiteSpace=wrap;html=1;" parent="Ql_LzicgHUzbhHf-Kg4L-5" vertex="1">
          <mxGeometry x="375" y="35" width="110" height="45" as="geometry" />
        </mxCell>
        <mxCell id="Ql_LzicgHUzbhHf-Kg4L-34" style="edgeStyle=orthogonalEdgeStyle;rounded=0;orthogonalLoop=1;jettySize=auto;html=1;" parent="WIyWlLk6GJQsqaUBKTNV-1" source="Ql_LzicgHUzbhHf-Kg4L-11" target="Ql_LzicgHUzbhHf-Kg4L-0" edge="1">
          <mxGeometry relative="1" as="geometry" />
        </mxCell>
        <mxCell id="Ql_LzicgHUzbhHf-Kg4L-11" value="&amp;nbsp; &amp;nbsp; &amp;nbsp;Funktionelle Elemente" style="swimlane;whiteSpace=wrap;html=1;fillColor=#E6E6E6;startSize=29;" parent="WIyWlLk6GJQsqaUBKTNV-1" vertex="1">
          <mxGeometry x="546" y="181.5" width="134" height="207.5" as="geometry" />
        </mxCell>
        <mxCell id="Ql_LzicgHUzbhHf-Kg4L-12" value="Nützlichkeit" style="rounded=0;whiteSpace=wrap;html=1;" parent="Ql_LzicgHUzbhHf-Kg4L-11" vertex="1">
          <mxGeometry x="12" y="93.88" width="110" height="44.75" as="geometry" />
        </mxCell>
        <mxCell id="Ql_LzicgHUzbhHf-Kg4L-13" value="Soziale Norm" style="rounded=0;whiteSpace=wrap;html=1;" parent="Ql_LzicgHUzbhHf-Kg4L-11" vertex="1">
          <mxGeometry x="12" y="149.5" width="110" height="45" as="geometry" />
        </mxCell>
        <mxCell id="Ql_LzicgHUzbhHf-Kg4L-15" value="Benutzer-freundlichkeit" style="rounded=0;whiteSpace=wrap;html=1;" parent="Ql_LzicgHUzbhHf-Kg4L-11" vertex="1">
          <mxGeometry x="12" y="38.5" width="110" height="45" as="geometry" />
        </mxCell>
        <mxCell id="Ql_LzicgHUzbhHf-Kg4L-36" style="edgeStyle=orthogonalEdgeStyle;rounded=0;orthogonalLoop=1;jettySize=auto;html=1;" parent="WIyWlLk6GJQsqaUBKTNV-1" source="Ql_LzicgHUzbhHf-Kg4L-25" target="Ql_LzicgHUzbhHf-Kg4L-0" edge="1">
          <mxGeometry relative="1" as="geometry" />
        </mxCell>
        <mxCell id="Ql_LzicgHUzbhHf-Kg4L-25" value="Soziale Elemente" style="swimlane;whiteSpace=wrap;html=1;fillColor=#E6E6E6;" parent="WIyWlLk6GJQsqaUBKTNV-1" vertex="1">
          <mxGeometry x="635" y="71" width="385" height="90" as="geometry">
            <mxRectangle x="635" y="71" width="133" height="26" as="alternateBounds" />
          </mxGeometry>
        </mxCell>
        <mxCell id="Ql_LzicgHUzbhHf-Kg4L-26" value="Soziale Interaktivität" style="rounded=0;whiteSpace=wrap;html=1;" parent="Ql_LzicgHUzbhHf-Kg4L-25" vertex="1">
          <mxGeometry x="137" y="35" width="117" height="45" as="geometry" />
        </mxCell>
        <mxCell id="Ql_LzicgHUzbhHf-Kg4L-28" value="Soziale Präsenz" style="rounded=0;whiteSpace=wrap;html=1;" parent="Ql_LzicgHUzbhHf-Kg4L-25" vertex="1">
          <mxGeometry x="265" y="35" width="110" height="45" as="geometry" />
        </mxCell>
        <mxCell id="Ql_LzicgHUzbhHf-Kg4L-29" value="Menschlichkeit" style="rounded=0;whiteSpace=wrap;html=1;" parent="Ql_LzicgHUzbhHf-Kg4L-25" vertex="1">
          <mxGeometry x="15" y="35" width="110" height="45" as="geometry" />
        </mxCell>
        <mxCell id="Ql_LzicgHUzbhHf-Kg4L-35" style="edgeStyle=orthogonalEdgeStyle;rounded=0;orthogonalLoop=1;jettySize=auto;html=1;entryX=1;entryY=0.5;entryDx=0;entryDy=0;" parent="WIyWlLk6GJQsqaUBKTNV-1" target="Ql_LzicgHUzbhHf-Kg4L-0" edge="1">
          <mxGeometry relative="1" as="geometry">
            <mxPoint x="978" y="285" as="sourcePoint" />
          </mxGeometry>
        </mxCell>
        <mxCell id="Ql_LzicgHUzbhHf-Kg4L-30" value="&amp;nbsp; &amp;nbsp; &amp;nbsp;Anwenderbezogene&lt;br style=&quot;border-color: var(--border-color);&quot;&gt;Elemente" style="swimlane;whiteSpace=wrap;html=1;startSize=30;fillColor=#E6E6E6;" parent="WIyWlLk6GJQsqaUBKTNV-1" vertex="1">
          <mxGeometry x="977" y="196" width="139" height="147" as="geometry" />
        </mxCell>
        <mxCell id="Ql_LzicgHUzbhHf-Kg4L-31" value="Hedonismus" style="rounded=0;whiteSpace=wrap;html=1;" parent="Ql_LzicgHUzbhHf-Kg4L-30" vertex="1">
          <mxGeometry x="14.5" y="90" width="110" height="45" as="geometry" />
        </mxCell>
        <mxCell id="Ql_LzicgHUzbhHf-Kg4L-33" value="Symbolische&lt;br&gt;Motivation" style="rounded=0;whiteSpace=wrap;html=1;" parent="Ql_LzicgHUzbhHf-Kg4L-30" vertex="1">
          <mxGeometry x="14.5" y="39" width="110" height="45" as="geometry" />
        </mxCell>
        <mxCell id="Ql_LzicgHUzbhHf-Kg4L-51" style="edgeStyle=orthogonalEdgeStyle;rounded=0;orthogonalLoop=1;jettySize=auto;html=1;" parent="WIyWlLk6GJQsqaUBKTNV-1" source="Ql_LzicgHUzbhHf-Kg4L-38" target="Ql_LzicgHUzbhHf-Kg4L-12" edge="1">
          <mxGeometry relative="1" as="geometry" />
        </mxCell>
        <mxCell id="Ql_LzicgHUzbhHf-Kg4L-38" value="&amp;nbsp; &amp;nbsp; &amp;nbsp;Systemische &lt;br&gt;Elemente" style="swimlane;whiteSpace=wrap;html=1;startSize=32;fillColor=#E6E6E6;" parent="WIyWlLk6GJQsqaUBKTNV-1" vertex="1">
          <mxGeometry x="400" y="142.75" width="129" height="310" as="geometry">
            <mxRectangle x="349" y="138.75" width="125" height="41" as="alternateBounds" />
          </mxGeometry>
        </mxCell>
        <mxCell id="Ql_LzicgHUzbhHf-Kg4L-44" value="Qualität der Antworten" style="rounded=0;whiteSpace=wrap;html=1;" parent="Ql_LzicgHUzbhHf-Kg4L-38" vertex="1">
          <mxGeometry x="9.5" y="42.25" width="110" height="45" as="geometry" />
        </mxCell>
        <mxCell id="Ql_LzicgHUzbhHf-Kg4L-45" value="Lernfähigkeit" style="rounded=0;whiteSpace=wrap;html=1;" parent="Ql_LzicgHUzbhHf-Kg4L-38" vertex="1">
          <mxGeometry x="9.5" y="94.5" width="110" height="45" as="geometry" />
        </mxCell>
        <mxCell id="Ql_LzicgHUzbhHf-Kg4L-46" value="Persönliche&lt;br&gt;Empfehlungen" style="rounded=0;whiteSpace=wrap;html=1;" parent="Ql_LzicgHUzbhHf-Kg4L-38" vertex="1">
          <mxGeometry x="9.5" y="148.75" width="110" height="45" as="geometry" />
        </mxCell>
        <mxCell id="Ql_LzicgHUzbhHf-Kg4L-43" value="Alternative&amp;nbsp;&lt;br&gt;menschliche Serviceoptionen" style="rounded=0;whiteSpace=wrap;html=1;" parent="Ql_LzicgHUzbhHf-Kg4L-38" vertex="1">
          <mxGeometry x="9.5" y="202.25" width="110" height="45" as="geometry" />
        </mxCell>
        <mxCell id="Ql_LzicgHUzbhHf-Kg4L-42" value="Erreichbarkeit" style="rounded=0;whiteSpace=wrap;html=1;" parent="Ql_LzicgHUzbhHf-Kg4L-38" vertex="1">
          <mxGeometry x="9.5" y="255.25" width="110" height="45" as="geometry" />
        </mxCell>
      </root>
    </mxGraphModel>
  </diagram>
  <diagram name="Kopie von Page-1" id="ey9pfnsaLxafmeU31ev_">
    <mxGraphModel dx="650" dy="501" grid="0" gridSize="10" guides="1" tooltips="1" connect="1" arrows="1" fold="1" page="0" pageScale="1" pageWidth="827" pageHeight="1169" math="0" shadow="0">
      <root>
        <mxCell id="yAiB5-8E5BIYUY283EM6-0" />
        <mxCell id="yAiB5-8E5BIYUY283EM6-1" parent="yAiB5-8E5BIYUY283EM6-0" />
        <mxCell id="yAiB5-8E5BIYUY283EM6-2" value="Akzeptanz&lt;br&gt;&amp;nbsp;von KI-Chatbots&lt;br&gt;(Nutzungsabsicht)" style="rounded=0;whiteSpace=wrap;html=1;" parent="yAiB5-8E5BIYUY283EM6-1" vertex="1">
          <mxGeometry x="762.5" y="250" width="130" height="70" as="geometry" />
        </mxCell>
        <mxCell id="yAiB5-8E5BIYUY283EM6-3" style="edgeStyle=orthogonalEdgeStyle;rounded=0;orthogonalLoop=1;jettySize=auto;html=1;entryX=0.5;entryY=1;entryDx=0;entryDy=0;" parent="yAiB5-8E5BIYUY283EM6-1" source="yAiB5-8E5BIYUY283EM6-5" target="yAiB5-8E5BIYUY283EM6-2" edge="1">
          <mxGeometry relative="1" as="geometry" />
        </mxCell>
        <mxCell id="yAiB5-8E5BIYUY283EM6-4" value="" style="edgeStyle=orthogonalEdgeStyle;rounded=0;orthogonalLoop=1;jettySize=auto;html=1;" parent="yAiB5-8E5BIYUY283EM6-1" source="yAiB5-8E5BIYUY283EM6-5" target="yAiB5-8E5BIYUY283EM6-2" edge="1">
          <mxGeometry relative="1" as="geometry" />
        </mxCell>
        <mxCell id="yAiB5-8E5BIYUY283EM6-5" value="Relationale Elemente" style="swimlane;whiteSpace=wrap;html=1;fillColor=#E6E6E6;strokeColor=#000000;" parent="yAiB5-8E5BIYUY283EM6-1" vertex="1">
          <mxGeometry x="580" y="413" width="495" height="90" as="geometry" />
        </mxCell>
        <mxCell id="yAiB5-8E5BIYUY283EM6-6" value="Datenschutz-bedenken" style="rounded=0;whiteSpace=wrap;html=1;" parent="yAiB5-8E5BIYUY283EM6-5" vertex="1">
          <mxGeometry x="255" y="35" width="110" height="45" as="geometry" />
        </mxCell>
        <mxCell id="yAiB5-8E5BIYUY283EM6-7" value="Beziehungsaufbau" style="rounded=0;whiteSpace=wrap;html=1;" parent="yAiB5-8E5BIYUY283EM6-5" vertex="1">
          <mxGeometry x="135" y="35" width="110" height="45" as="geometry" />
        </mxCell>
        <mxCell id="yAiB5-8E5BIYUY283EM6-8" value="Vertrauen" style="rounded=0;whiteSpace=wrap;html=1;" parent="yAiB5-8E5BIYUY283EM6-5" vertex="1">
          <mxGeometry x="15" y="35" width="110" height="45" as="geometry" />
        </mxCell>
        <mxCell id="yAiB5-8E5BIYUY283EM6-9" value="Angst vor KI" style="rounded=0;whiteSpace=wrap;html=1;" parent="yAiB5-8E5BIYUY283EM6-5" vertex="1">
          <mxGeometry x="375" y="35" width="110" height="45" as="geometry" />
        </mxCell>
        <mxCell id="yAiB5-8E5BIYUY283EM6-10" style="edgeStyle=orthogonalEdgeStyle;rounded=0;orthogonalLoop=1;jettySize=auto;html=1;" parent="yAiB5-8E5BIYUY283EM6-1" source="yAiB5-8E5BIYUY283EM6-11" target="yAiB5-8E5BIYUY283EM6-2" edge="1">
          <mxGeometry relative="1" as="geometry" />
        </mxCell>
        <mxCell id="yAiB5-8E5BIYUY283EM6-11" value="&amp;nbsp; &amp;nbsp; &amp;nbsp;Funktionelle Elemente" style="swimlane;whiteSpace=wrap;html=1;fillColor=#E6E6E6;startSize=29;" parent="yAiB5-8E5BIYUY283EM6-1" vertex="1">
          <mxGeometry x="546" y="181.5" width="134" height="207.5" as="geometry" />
        </mxCell>
        <mxCell id="yAiB5-8E5BIYUY283EM6-12" value="Nützlichkeit" style="rounded=0;whiteSpace=wrap;html=1;" parent="yAiB5-8E5BIYUY283EM6-11" vertex="1">
          <mxGeometry x="12" y="93.88" width="110" height="44.75" as="geometry" />
        </mxCell>
        <mxCell id="yAiB5-8E5BIYUY283EM6-13" value="Soziale Norm" style="rounded=0;whiteSpace=wrap;html=1;" parent="yAiB5-8E5BIYUY283EM6-11" vertex="1">
          <mxGeometry x="12" y="149.5" width="110" height="45" as="geometry" />
        </mxCell>
        <mxCell id="yAiB5-8E5BIYUY283EM6-14" value="Benutzer-freundlichkeit" style="rounded=0;whiteSpace=wrap;html=1;" parent="yAiB5-8E5BIYUY283EM6-11" vertex="1">
          <mxGeometry x="12" y="38.5" width="110" height="45" as="geometry" />
        </mxCell>
        <mxCell id="yAiB5-8E5BIYUY283EM6-15" style="edgeStyle=orthogonalEdgeStyle;rounded=0;orthogonalLoop=1;jettySize=auto;html=1;" parent="yAiB5-8E5BIYUY283EM6-1" source="yAiB5-8E5BIYUY283EM6-16" target="yAiB5-8E5BIYUY283EM6-2" edge="1">
          <mxGeometry relative="1" as="geometry" />
        </mxCell>
        <mxCell id="yAiB5-8E5BIYUY283EM6-16" value="Soziale Elemente" style="swimlane;whiteSpace=wrap;html=1;fillColor=#E6E6E6;" parent="yAiB5-8E5BIYUY283EM6-1" vertex="1">
          <mxGeometry x="635" y="71" width="385" height="90" as="geometry">
            <mxRectangle x="635" y="71" width="133" height="26" as="alternateBounds" />
          </mxGeometry>
        </mxCell>
        <mxCell id="yAiB5-8E5BIYUY283EM6-17" value="Soziale Interaktivität" style="rounded=0;whiteSpace=wrap;html=1;" parent="yAiB5-8E5BIYUY283EM6-16" vertex="1">
          <mxGeometry x="137" y="35" width="117" height="45" as="geometry" />
        </mxCell>
        <mxCell id="yAiB5-8E5BIYUY283EM6-18" value="Soziale Präsenz" style="rounded=0;whiteSpace=wrap;html=1;" parent="yAiB5-8E5BIYUY283EM6-16" vertex="1">
          <mxGeometry x="265" y="35" width="110" height="45" as="geometry" />
        </mxCell>
        <mxCell id="yAiB5-8E5BIYUY283EM6-19" value="Menschlichkeit" style="rounded=0;whiteSpace=wrap;html=1;" parent="yAiB5-8E5BIYUY283EM6-16" vertex="1">
          <mxGeometry x="15" y="35" width="110" height="45" as="geometry" />
        </mxCell>
        <mxCell id="yAiB5-8E5BIYUY283EM6-20" style="edgeStyle=orthogonalEdgeStyle;rounded=0;orthogonalLoop=1;jettySize=auto;html=1;entryX=1;entryY=0.5;entryDx=0;entryDy=0;" parent="yAiB5-8E5BIYUY283EM6-1" target="yAiB5-8E5BIYUY283EM6-2" edge="1">
          <mxGeometry relative="1" as="geometry">
            <mxPoint x="978" y="285" as="sourcePoint" />
          </mxGeometry>
        </mxCell>
        <mxCell id="yAiB5-8E5BIYUY283EM6-21" value="&amp;nbsp; &amp;nbsp; &amp;nbsp;Anwenderbezogene&lt;br style=&quot;border-color: var(--border-color);&quot;&gt;Elemente" style="swimlane;whiteSpace=wrap;html=1;startSize=30;fillColor=#E6E6E6;" parent="yAiB5-8E5BIYUY283EM6-1" vertex="1">
          <mxGeometry x="977" y="196" width="139" height="147" as="geometry" />
        </mxCell>
        <mxCell id="yAiB5-8E5BIYUY283EM6-22" value="Hedonismus" style="rounded=0;whiteSpace=wrap;html=1;" parent="yAiB5-8E5BIYUY283EM6-21" vertex="1">
          <mxGeometry x="14.5" y="90" width="110" height="45" as="geometry" />
        </mxCell>
        <mxCell id="yAiB5-8E5BIYUY283EM6-23" value="Symbolische&lt;br&gt;Motivation" style="rounded=0;whiteSpace=wrap;html=1;" parent="yAiB5-8E5BIYUY283EM6-21" vertex="1">
          <mxGeometry x="14.5" y="39" width="110" height="45" as="geometry" />
        </mxCell>
        <mxCell id="yAiB5-8E5BIYUY283EM6-24" style="edgeStyle=orthogonalEdgeStyle;rounded=0;orthogonalLoop=1;jettySize=auto;html=1;" parent="yAiB5-8E5BIYUY283EM6-1" source="yAiB5-8E5BIYUY283EM6-25" target="yAiB5-8E5BIYUY283EM6-12" edge="1">
          <mxGeometry relative="1" as="geometry" />
        </mxCell>
        <mxCell id="yAiB5-8E5BIYUY283EM6-25" value="&amp;nbsp; &amp;nbsp; &amp;nbsp;Systemische &lt;br&gt;Elemente" style="swimlane;whiteSpace=wrap;html=1;startSize=32;fillColor=#E6E6E6;" parent="yAiB5-8E5BIYUY283EM6-1" vertex="1">
          <mxGeometry x="400" y="142.75" width="129" height="310" as="geometry">
            <mxRectangle x="349" y="138.75" width="125" height="41" as="alternateBounds" />
          </mxGeometry>
        </mxCell>
        <mxCell id="yAiB5-8E5BIYUY283EM6-26" value="Qualität der Antworten" style="rounded=0;whiteSpace=wrap;html=1;" parent="yAiB5-8E5BIYUY283EM6-25" vertex="1">
          <mxGeometry x="9.5" y="42.25" width="110" height="45" as="geometry" />
        </mxCell>
        <mxCell id="yAiB5-8E5BIYUY283EM6-27" value="Lernfähigkeit" style="rounded=0;whiteSpace=wrap;html=1;" parent="yAiB5-8E5BIYUY283EM6-25" vertex="1">
          <mxGeometry x="9.5" y="94.5" width="110" height="45" as="geometry" />
        </mxCell>
        <mxCell id="yAiB5-8E5BIYUY283EM6-28" value="Persönliche&lt;br&gt;Empfehlungen" style="rounded=0;whiteSpace=wrap;html=1;" parent="yAiB5-8E5BIYUY283EM6-25" vertex="1">
          <mxGeometry x="9.5" y="148.75" width="110" height="45" as="geometry" />
        </mxCell>
        <mxCell id="yAiB5-8E5BIYUY283EM6-29" value="Alternative&amp;nbsp;&lt;br&gt;menschliche Serviceoptionen" style="rounded=0;whiteSpace=wrap;html=1;" parent="yAiB5-8E5BIYUY283EM6-25" vertex="1">
          <mxGeometry x="9.5" y="202.25" width="110" height="45" as="geometry" />
        </mxCell>
        <mxCell id="yAiB5-8E5BIYUY283EM6-30" value="Erreichbarkeit" style="rounded=0;whiteSpace=wrap;html=1;" parent="yAiB5-8E5BIYUY283EM6-25" vertex="1">
          <mxGeometry x="9.5" y="255.25" width="110" height="45" as="geometry" />
        </mxCell>
        <mxCell id="yAiB5-8E5BIYUY283EM6-31" value="Moderationseffekte" style="swimlane;whiteSpace=wrap;html=1;startSize=30;fillColor=#FFFFFF;dashed=1;" parent="yAiB5-8E5BIYUY283EM6-1" vertex="1">
          <mxGeometry x="1132" y="197" width="143" height="147" as="geometry" />
        </mxCell>
        <mxCell id="yAiB5-8E5BIYUY283EM6-32" value="Bevorzugen menschlicher Interaktion" style="rounded=0;whiteSpace=wrap;html=1;" parent="yAiB5-8E5BIYUY283EM6-31" vertex="1">
          <mxGeometry x="20" y="90" width="110" height="45" as="geometry" />
        </mxCell>
        <mxCell id="yAiB5-8E5BIYUY283EM6-33" value="Nutzungs-&lt;br&gt;häufigkeit" style="rounded=0;whiteSpace=wrap;html=1;" parent="yAiB5-8E5BIYUY283EM6-31" vertex="1">
          <mxGeometry x="20" y="39" width="110" height="45" as="geometry" />
        </mxCell>
        <mxCell id="yAiB5-8E5BIYUY283EM6-34" style="edgeStyle=orthogonalEdgeStyle;rounded=0;orthogonalLoop=1;jettySize=auto;html=1;dashed=1;" parent="yAiB5-8E5BIYUY283EM6-1" edge="1">
          <mxGeometry relative="1" as="geometry">
            <mxPoint x="1213" y="344" as="sourcePoint" />
            <mxPoint x="712" y="286" as="targetPoint" />
            <Array as="points">
              <mxPoint x="1212" y="344" />
              <mxPoint x="1212" y="402" />
              <mxPoint x="712" y="402" />
            </Array>
          </mxGeometry>
        </mxCell>
        <mxCell id="yAiB5-8E5BIYUY283EM6-35" style="edgeStyle=orthogonalEdgeStyle;rounded=0;orthogonalLoop=1;jettySize=auto;html=1;dashed=1;exitX=0.25;exitY=1;exitDx=0;exitDy=0;" parent="yAiB5-8E5BIYUY283EM6-1" source="yAiB5-8E5BIYUY283EM6-31" edge="1">
          <mxGeometry relative="1" as="geometry">
            <mxPoint x="1134" y="360" as="sourcePoint" />
            <mxPoint x="942" y="286" as="targetPoint" />
            <Array as="points">
              <mxPoint x="1168" y="360" />
              <mxPoint x="942" y="360" />
            </Array>
          </mxGeometry>
        </mxCell>
        <mxCell id="yAiB5-8E5BIYUY283EM6-36" style="edgeStyle=orthogonalEdgeStyle;rounded=0;orthogonalLoop=1;jettySize=auto;html=1;dashed=1;" parent="yAiB5-8E5BIYUY283EM6-1" edge="1">
          <mxGeometry relative="1" as="geometry">
            <mxPoint x="1190" y="345" as="sourcePoint" />
            <mxPoint x="828" y="378" as="targetPoint" />
            <Array as="points">
              <mxPoint x="1190" y="378" />
            </Array>
          </mxGeometry>
        </mxCell>
        <mxCell id="yAiB5-8E5BIYUY283EM6-37" style="edgeStyle=orthogonalEdgeStyle;rounded=0;orthogonalLoop=1;jettySize=auto;html=1;dashed=1;exitX=0.5;exitY=0;exitDx=0;exitDy=0;" parent="yAiB5-8E5BIYUY283EM6-1" source="yAiB5-8E5BIYUY283EM6-31" edge="1">
          <mxGeometry relative="1" as="geometry">
            <mxPoint x="1132" y="183" as="sourcePoint" />
            <mxPoint x="828" y="183" as="targetPoint" />
            <Array as="points">
              <mxPoint x="1204" y="182" />
              <mxPoint x="1133" y="182" />
            </Array>
          </mxGeometry>
        </mxCell>
      </root>
    </mxGraphModel>
  </diagram>
  <diagram name="Hypothesen" id="p13AWgqNLRS50dkZbel5">
    <mxGraphModel dx="1050" dy="501" grid="0" gridSize="10" guides="1" tooltips="1" connect="1" arrows="1" fold="1" page="0" pageScale="1" pageWidth="827" pageHeight="1169" math="0" shadow="0">
      <root>
        <mxCell id="8cOobXQZzkbbPZnK6C__-0" />
        <mxCell id="8cOobXQZzkbbPZnK6C__-1" parent="8cOobXQZzkbbPZnK6C__-0" />
        <mxCell id="8cOobXQZzkbbPZnK6C__-2" value="Akzeptanz&lt;br&gt;&amp;nbsp;von KI-Chatbots&lt;br&gt;(Nutzungsabsicht)" style="rounded=1;whiteSpace=wrap;html=1;glass=0;shadow=0;" parent="8cOobXQZzkbbPZnK6C__-1" vertex="1">
          <mxGeometry x="763.5" y="252" width="130" height="70" as="geometry" />
        </mxCell>
        <mxCell id="8cOobXQZzkbbPZnK6C__-5" value="&lt;font style=&quot;font-size: 11px;&quot;&gt;Relationale Elemente&lt;/font&gt;" style="swimlane;whiteSpace=wrap;html=1;fillColor=#FFFFFF;strokeColor=#CCCCCC;" parent="8cOobXQZzkbbPZnK6C__-1" vertex="1">
          <mxGeometry x="580" y="413" width="495" height="90" as="geometry" />
        </mxCell>
        <mxCell id="8cOobXQZzkbbPZnK6C__-6" value="Datenschutz-bedenken" style="rounded=0;whiteSpace=wrap;html=1;" parent="8cOobXQZzkbbPZnK6C__-5" vertex="1">
          <mxGeometry x="255" y="35" width="110" height="45" as="geometry" />
        </mxCell>
        <mxCell id="8cOobXQZzkbbPZnK6C__-7" value="Beziehungsaufbau" style="rounded=0;whiteSpace=wrap;html=1;" parent="8cOobXQZzkbbPZnK6C__-5" vertex="1">
          <mxGeometry x="135" y="35" width="110" height="45" as="geometry" />
        </mxCell>
        <mxCell id="8cOobXQZzkbbPZnK6C__-8" value="Vertrauen" style="rounded=0;whiteSpace=wrap;html=1;" parent="8cOobXQZzkbbPZnK6C__-5" vertex="1">
          <mxGeometry x="15" y="35" width="110" height="45" as="geometry" />
        </mxCell>
        <mxCell id="8cOobXQZzkbbPZnK6C__-9" value="Angst vor KI" style="rounded=0;whiteSpace=wrap;html=1;" parent="8cOobXQZzkbbPZnK6C__-5" vertex="1">
          <mxGeometry x="375" y="35" width="110" height="45" as="geometry" />
        </mxCell>
        <mxCell id="8cOobXQZzkbbPZnK6C__-11" value="&amp;nbsp; &amp;nbsp; &amp;nbsp;Funktionelle Elemente" style="swimlane;whiteSpace=wrap;html=1;fillColor=#FFFFFF;startSize=29;strokeColor=#CCCCCC;fontSize=11;" parent="8cOobXQZzkbbPZnK6C__-1" vertex="1">
          <mxGeometry x="550" y="171" width="134" height="200" as="geometry" />
        </mxCell>
        <mxCell id="8cOobXQZzkbbPZnK6C__-12" value="Nützlichkeit" style="rounded=0;whiteSpace=wrap;html=1;" parent="8cOobXQZzkbbPZnK6C__-11" vertex="1">
          <mxGeometry x="12" y="93.88" width="110" height="44.75" as="geometry" />
        </mxCell>
        <mxCell id="8cOobXQZzkbbPZnK6C__-13" value="Soziale Norm" style="rounded=0;whiteSpace=wrap;html=1;" parent="8cOobXQZzkbbPZnK6C__-11" vertex="1">
          <mxGeometry x="12" y="149.5" width="110" height="45" as="geometry" />
        </mxCell>
        <mxCell id="8cOobXQZzkbbPZnK6C__-14" value="Benutzer-freundlichkeit" style="rounded=0;whiteSpace=wrap;html=1;" parent="8cOobXQZzkbbPZnK6C__-11" vertex="1">
          <mxGeometry x="12" y="38.5" width="110" height="45" as="geometry" />
        </mxCell>
        <mxCell id="8cOobXQZzkbbPZnK6C__-16" value="Soziale Elemente" style="swimlane;whiteSpace=wrap;html=1;fillColor=#FFFFFF;glass=0;shadow=0;strokeColor=#CCCCCC;fontSize=11;" parent="8cOobXQZzkbbPZnK6C__-1" vertex="1">
          <mxGeometry x="635" y="71" width="385" height="90" as="geometry">
            <mxRectangle x="635" y="71" width="133" height="26" as="alternateBounds" />
          </mxGeometry>
        </mxCell>
        <mxCell id="8cOobXQZzkbbPZnK6C__-17" value="Soziale Interaktivität" style="rounded=0;whiteSpace=wrap;html=1;" parent="8cOobXQZzkbbPZnK6C__-16" vertex="1">
          <mxGeometry x="135" y="35" width="117" height="45" as="geometry" />
        </mxCell>
        <mxCell id="8cOobXQZzkbbPZnK6C__-18" value="Soziale Präsenz" style="rounded=0;whiteSpace=wrap;html=1;" parent="8cOobXQZzkbbPZnK6C__-16" vertex="1">
          <mxGeometry x="263" y="35" width="110" height="45" as="geometry" />
        </mxCell>
        <mxCell id="8cOobXQZzkbbPZnK6C__-19" value="Menschlichkeit" style="rounded=0;whiteSpace=wrap;html=1;" parent="8cOobXQZzkbbPZnK6C__-16" vertex="1">
          <mxGeometry x="15" y="35" width="110" height="45" as="geometry" />
        </mxCell>
        <mxCell id="8cOobXQZzkbbPZnK6C__-21" value="&amp;nbsp; &amp;nbsp; &amp;nbsp;Anwenderbezogene&lt;br style=&quot;border-color: var(--border-color); font-size: 11px;&quot;&gt;Elemente" style="swimlane;whiteSpace=wrap;html=1;startSize=30;fillColor=#FFFFFF;strokeColor=#CCCCCC;fontSize=11;" parent="8cOobXQZzkbbPZnK6C__-1" vertex="1">
          <mxGeometry x="962" y="200" width="133" height="147" as="geometry" />
        </mxCell>
        <mxCell id="8cOobXQZzkbbPZnK6C__-23" value="Symbolische&lt;br&gt;Motivation" style="rounded=0;whiteSpace=wrap;html=1;" parent="8cOobXQZzkbbPZnK6C__-21" vertex="1">
          <mxGeometry x="14.5" y="39" width="110" height="45" as="geometry" />
        </mxCell>
        <mxCell id="8cOobXQZzkbbPZnK6C__-22" value="Hedonismus" style="rounded=0;whiteSpace=wrap;html=1;" parent="8cOobXQZzkbbPZnK6C__-21" vertex="1">
          <mxGeometry x="14.5" y="91.75" width="110" height="45" as="geometry" />
        </mxCell>
        <mxCell id="8cOobXQZzkbbPZnK6C__-25" value="&amp;nbsp; &amp;nbsp; &amp;nbsp;Systemische &lt;br style=&quot;font-size: 11px;&quot;&gt;Elemente" style="swimlane;whiteSpace=wrap;html=1;startSize=32;fillColor=#FFFFFF;strokeColor=#CCCCCC;fontSize=11;" parent="8cOobXQZzkbbPZnK6C__-1" vertex="1">
          <mxGeometry x="382" y="132" width="125" height="310" as="geometry">
            <mxRectangle x="349" y="138.75" width="125" height="41" as="alternateBounds" />
          </mxGeometry>
        </mxCell>
        <mxCell id="8cOobXQZzkbbPZnK6C__-26" value="Qualität der Antworten" style="rounded=0;whiteSpace=wrap;html=1;" parent="8cOobXQZzkbbPZnK6C__-25" vertex="1">
          <mxGeometry x="9.5" y="42.25" width="110" height="45" as="geometry" />
        </mxCell>
        <mxCell id="8cOobXQZzkbbPZnK6C__-27" value="Lernfähigkeit" style="rounded=0;whiteSpace=wrap;html=1;" parent="8cOobXQZzkbbPZnK6C__-25" vertex="1">
          <mxGeometry x="9.5" y="94.5" width="110" height="45" as="geometry" />
        </mxCell>
        <mxCell id="8cOobXQZzkbbPZnK6C__-28" value="Persönliche&lt;br&gt;Empfehlungen" style="rounded=0;whiteSpace=wrap;html=1;" parent="8cOobXQZzkbbPZnK6C__-25" vertex="1">
          <mxGeometry x="9.5" y="148.75" width="110" height="45" as="geometry" />
        </mxCell>
        <mxCell id="8cOobXQZzkbbPZnK6C__-29" value="Alternative&amp;nbsp;&lt;br&gt;menschliche Serviceoptionen" style="rounded=0;whiteSpace=wrap;html=1;" parent="8cOobXQZzkbbPZnK6C__-25" vertex="1">
          <mxGeometry x="9.5" y="202.25" width="110" height="45" as="geometry" />
        </mxCell>
        <mxCell id="8cOobXQZzkbbPZnK6C__-30" value="Erreichbarkeit" style="rounded=0;whiteSpace=wrap;html=1;" parent="8cOobXQZzkbbPZnK6C__-25" vertex="1">
          <mxGeometry x="9.5" y="255.25" width="110" height="45" as="geometry" />
        </mxCell>
        <mxCell id="8cOobXQZzkbbPZnK6C__-31" value="&amp;nbsp; &amp;nbsp; moderierende Effekte" style="swimlane;whiteSpace=wrap;html=1;startSize=30;fillColor=#FFFFFF;dashed=1;strokeColor=#E6E6E6;" parent="8cOobXQZzkbbPZnK6C__-1" vertex="1">
          <mxGeometry x="1118" y="199.5" width="143" height="148" as="geometry" />
        </mxCell>
        <mxCell id="8cOobXQZzkbbPZnK6C__-32" value="Bevorzugen menschliche Interaktion" style="rounded=0;whiteSpace=wrap;html=1;strokeColor=#CCCCCC;" parent="8cOobXQZzkbbPZnK6C__-31" vertex="1">
          <mxGeometry x="16.5" y="92" width="110" height="45" as="geometry" />
        </mxCell>
        <mxCell id="8cOobXQZzkbbPZnK6C__-34" value="Nutzungs-&lt;br&gt;häufigkeit" style="rounded=0;whiteSpace=wrap;html=1;strokeColor=#CCCCCC;" parent="8cOobXQZzkbbPZnK6C__-31" vertex="1">
          <mxGeometry x="16.5" y="38" width="110" height="45" as="geometry" />
        </mxCell>
        <mxCell id="gTfDsf9mQsJp9cUVm6Rf-1" style="edgeStyle=orthogonalEdgeStyle;rounded=0;orthogonalLoop=1;jettySize=auto;html=1;entryX=-0.003;entryY=0.212;entryDx=0;entryDy=0;entryPerimeter=0;" parent="8cOobXQZzkbbPZnK6C__-1" source="8cOobXQZzkbbPZnK6C__-14" target="8cOobXQZzkbbPZnK6C__-2" edge="1">
          <mxGeometry relative="1" as="geometry">
            <Array as="points">
              <mxPoint x="743" y="232" />
              <mxPoint x="743" y="267" />
            </Array>
          </mxGeometry>
        </mxCell>
        <mxCell id="gTfDsf9mQsJp9cUVm6Rf-2" style="edgeStyle=orthogonalEdgeStyle;rounded=0;orthogonalLoop=1;jettySize=auto;html=1;entryX=0;entryY=0.5;entryDx=0;entryDy=0;" parent="8cOobXQZzkbbPZnK6C__-1" source="8cOobXQZzkbbPZnK6C__-12" target="8cOobXQZzkbbPZnK6C__-2" edge="1">
          <mxGeometry relative="1" as="geometry" />
        </mxCell>
        <mxCell id="gTfDsf9mQsJp9cUVm6Rf-4" style="edgeStyle=orthogonalEdgeStyle;rounded=0;orthogonalLoop=1;jettySize=auto;html=1;entryX=0.25;entryY=0;entryDx=0;entryDy=0;" parent="8cOobXQZzkbbPZnK6C__-1" source="8cOobXQZzkbbPZnK6C__-19" target="8cOobXQZzkbbPZnK6C__-2" edge="1">
          <mxGeometry relative="1" as="geometry">
            <Array as="points">
              <mxPoint x="715" y="203" />
              <mxPoint x="795" y="203" />
              <mxPoint x="795" y="252" />
            </Array>
          </mxGeometry>
        </mxCell>
        <mxCell id="gTfDsf9mQsJp9cUVm6Rf-5" style="edgeStyle=orthogonalEdgeStyle;rounded=0;orthogonalLoop=1;jettySize=auto;html=1;" parent="8cOobXQZzkbbPZnK6C__-1" source="8cOobXQZzkbbPZnK6C__-17" target="8cOobXQZzkbbPZnK6C__-2" edge="1">
          <mxGeometry relative="1" as="geometry" />
        </mxCell>
        <mxCell id="gTfDsf9mQsJp9cUVm6Rf-6" style="edgeStyle=orthogonalEdgeStyle;rounded=0;orthogonalLoop=1;jettySize=auto;html=1;entryX=0.75;entryY=0;entryDx=0;entryDy=0;" parent="8cOobXQZzkbbPZnK6C__-1" source="8cOobXQZzkbbPZnK6C__-18" target="8cOobXQZzkbbPZnK6C__-2" edge="1">
          <mxGeometry relative="1" as="geometry">
            <Array as="points">
              <mxPoint x="947" y="202" />
              <mxPoint x="860" y="202" />
              <mxPoint x="860" y="252" />
            </Array>
          </mxGeometry>
        </mxCell>
        <mxCell id="gTfDsf9mQsJp9cUVm6Rf-7" style="edgeStyle=orthogonalEdgeStyle;rounded=0;orthogonalLoop=1;jettySize=auto;html=1;entryX=0;entryY=0.75;entryDx=0;entryDy=0;" parent="8cOobXQZzkbbPZnK6C__-1" source="8cOobXQZzkbbPZnK6C__-13" target="8cOobXQZzkbbPZnK6C__-2" edge="1">
          <mxGeometry relative="1" as="geometry">
            <Array as="points">
              <mxPoint x="745" y="343" />
              <mxPoint x="745" y="304" />
            </Array>
          </mxGeometry>
        </mxCell>
        <mxCell id="gTfDsf9mQsJp9cUVm6Rf-9" style="edgeStyle=orthogonalEdgeStyle;rounded=0;orthogonalLoop=1;jettySize=auto;html=1;entryX=1;entryY=0.25;entryDx=0;entryDy=0;" parent="8cOobXQZzkbbPZnK6C__-1" source="8cOobXQZzkbbPZnK6C__-23" target="8cOobXQZzkbbPZnK6C__-2" edge="1">
          <mxGeometry relative="1" as="geometry">
            <Array as="points">
              <mxPoint x="894" y="270" />
            </Array>
          </mxGeometry>
        </mxCell>
        <mxCell id="gTfDsf9mQsJp9cUVm6Rf-10" style="edgeStyle=orthogonalEdgeStyle;rounded=0;orthogonalLoop=1;jettySize=auto;html=1;entryX=1;entryY=0.75;entryDx=0;entryDy=0;" parent="8cOobXQZzkbbPZnK6C__-1" source="8cOobXQZzkbbPZnK6C__-22" target="8cOobXQZzkbbPZnK6C__-2" edge="1">
          <mxGeometry relative="1" as="geometry">
            <Array as="points">
              <mxPoint x="924" y="305" />
            </Array>
          </mxGeometry>
        </mxCell>
        <mxCell id="gTfDsf9mQsJp9cUVm6Rf-13" style="edgeStyle=orthogonalEdgeStyle;rounded=0;orthogonalLoop=1;jettySize=auto;html=1;entryX=0.616;entryY=1.034;entryDx=0;entryDy=0;entryPerimeter=0;" parent="8cOobXQZzkbbPZnK6C__-1" source="8cOobXQZzkbbPZnK6C__-6" target="8cOobXQZzkbbPZnK6C__-2" edge="1">
          <mxGeometry relative="1" as="geometry">
            <Array as="points">
              <mxPoint x="896" y="405" />
              <mxPoint x="844" y="405" />
            </Array>
          </mxGeometry>
        </mxCell>
        <mxCell id="gTfDsf9mQsJp9cUVm6Rf-14" style="edgeStyle=orthogonalEdgeStyle;rounded=0;orthogonalLoop=1;jettySize=auto;html=1;entryX=0.808;entryY=0.994;entryDx=0;entryDy=0;entryPerimeter=0;" parent="8cOobXQZzkbbPZnK6C__-1" source="8cOobXQZzkbbPZnK6C__-9" target="8cOobXQZzkbbPZnK6C__-2" edge="1">
          <mxGeometry relative="1" as="geometry">
            <Array as="points">
              <mxPoint x="1010" y="386" />
              <mxPoint x="869" y="386" />
            </Array>
          </mxGeometry>
        </mxCell>
        <mxCell id="gTfDsf9mQsJp9cUVm6Rf-15" style="edgeStyle=orthogonalEdgeStyle;rounded=0;orthogonalLoop=1;jettySize=auto;html=1;entryX=0.25;entryY=1;entryDx=0;entryDy=0;" parent="8cOobXQZzkbbPZnK6C__-1" edge="1">
          <mxGeometry relative="1" as="geometry">
            <mxPoint x="650" y="450" as="sourcePoint" />
            <mxPoint x="796" y="324" as="targetPoint" />
            <Array as="points">
              <mxPoint x="650" y="386" />
              <mxPoint x="796" y="386" />
            </Array>
          </mxGeometry>
        </mxCell>
        <mxCell id="gTfDsf9mQsJp9cUVm6Rf-16" style="edgeStyle=orthogonalEdgeStyle;rounded=0;orthogonalLoop=1;jettySize=auto;html=1;entryX=0.423;entryY=1.024;entryDx=0;entryDy=0;entryPerimeter=0;" parent="8cOobXQZzkbbPZnK6C__-1" source="8cOobXQZzkbbPZnK6C__-7" target="8cOobXQZzkbbPZnK6C__-2" edge="1">
          <mxGeometry relative="1" as="geometry">
            <Array as="points">
              <mxPoint x="758" y="406" />
              <mxPoint x="818" y="406" />
            </Array>
          </mxGeometry>
        </mxCell>
        <mxCell id="gTfDsf9mQsJp9cUVm6Rf-17" value="+" style="text;html=1;strokeColor=none;fillColor=none;align=center;verticalAlign=middle;whiteSpace=wrap;rounded=0;opacity=0;fontSize=20;" parent="8cOobXQZzkbbPZnK6C__-1" vertex="1">
          <mxGeometry x="733.5" y="180" width="40" height="25" as="geometry" />
        </mxCell>
        <mxCell id="gTfDsf9mQsJp9cUVm6Rf-19" value="+" style="text;html=1;strokeColor=none;fillColor=none;align=center;verticalAlign=middle;whiteSpace=wrap;rounded=0;opacity=0;fontSize=20;" parent="8cOobXQZzkbbPZnK6C__-1" vertex="1">
          <mxGeometry x="801" y="178" width="40" height="25" as="geometry" />
        </mxCell>
        <mxCell id="gTfDsf9mQsJp9cUVm6Rf-20" value="+" style="text;html=1;strokeColor=none;fillColor=none;align=center;verticalAlign=middle;whiteSpace=wrap;rounded=0;opacity=0;fontSize=20;" parent="8cOobXQZzkbbPZnK6C__-1" vertex="1">
          <mxGeometry x="684" y="211" width="40" height="25" as="geometry" />
        </mxCell>
        <mxCell id="gTfDsf9mQsJp9cUVm6Rf-22" value="+" style="text;html=1;strokeColor=none;fillColor=none;align=center;verticalAlign=middle;whiteSpace=wrap;rounded=0;opacity=0;fontSize=20;" parent="8cOobXQZzkbbPZnK6C__-1" vertex="1">
          <mxGeometry x="886" y="179" width="40" height="25" as="geometry" />
        </mxCell>
        <mxCell id="gTfDsf9mQsJp9cUVm6Rf-25" value="+" style="text;html=1;strokeColor=none;fillColor=none;align=center;verticalAlign=middle;whiteSpace=wrap;rounded=0;opacity=0;fontSize=20;" parent="8cOobXQZzkbbPZnK6C__-1" vertex="1">
          <mxGeometry x="683.5" y="320" width="40" height="25" as="geometry" />
        </mxCell>
        <mxCell id="gTfDsf9mQsJp9cUVm6Rf-28" value="+" style="text;html=1;strokeColor=none;fillColor=none;align=center;verticalAlign=middle;whiteSpace=wrap;rounded=0;opacity=0;fontSize=20;" parent="8cOobXQZzkbbPZnK6C__-1" vertex="1">
          <mxGeometry x="684" y="266" width="40" height="25" as="geometry" />
        </mxCell>
        <mxCell id="gTfDsf9mQsJp9cUVm6Rf-29" value="+" style="text;html=1;strokeColor=none;fillColor=none;align=center;verticalAlign=middle;whiteSpace=wrap;rounded=0;opacity=0;fontSize=20;" parent="8cOobXQZzkbbPZnK6C__-1" vertex="1">
          <mxGeometry x="766.5" y="384" width="40" height="25" as="geometry" />
        </mxCell>
        <mxCell id="gTfDsf9mQsJp9cUVm6Rf-30" value="+" style="text;html=1;strokeColor=none;fillColor=none;align=center;verticalAlign=middle;whiteSpace=wrap;rounded=0;opacity=0;fontSize=20;" parent="8cOobXQZzkbbPZnK6C__-1" vertex="1">
          <mxGeometry x="706" y="359" width="40" height="25" as="geometry" />
        </mxCell>
        <mxCell id="gTfDsf9mQsJp9cUVm6Rf-31" value="-" style="text;html=1;strokeColor=none;fillColor=none;align=center;verticalAlign=middle;whiteSpace=wrap;rounded=0;opacity=0;fontSize=20;fontStyle=0" parent="8cOobXQZzkbbPZnK6C__-1" vertex="1">
          <mxGeometry x="848.5" y="383" width="40" height="25" as="geometry" />
        </mxCell>
        <mxCell id="gTfDsf9mQsJp9cUVm6Rf-32" value="-" style="text;html=1;strokeColor=none;fillColor=none;align=center;verticalAlign=middle;whiteSpace=wrap;rounded=0;opacity=0;fontStyle=0;fontSize=20;" parent="8cOobXQZzkbbPZnK6C__-1" vertex="1">
          <mxGeometry x="918.5" y="361" width="40" height="25" as="geometry" />
        </mxCell>
        <mxCell id="gTfDsf9mQsJp9cUVm6Rf-33" value="+" style="text;html=1;strokeColor=none;fillColor=none;align=center;verticalAlign=middle;whiteSpace=wrap;rounded=0;opacity=0;fontSize=20;" parent="8cOobXQZzkbbPZnK6C__-1" vertex="1">
          <mxGeometry x="915" y="284" width="40" height="25" as="geometry" />
        </mxCell>
        <mxCell id="gTfDsf9mQsJp9cUVm6Rf-34" value="+" style="text;html=1;strokeColor=none;fillColor=none;align=center;verticalAlign=middle;whiteSpace=wrap;rounded=0;opacity=0;fontSize=20;" parent="8cOobXQZzkbbPZnK6C__-1" vertex="1">
          <mxGeometry x="914.5" y="247" width="40" height="25" as="geometry" />
        </mxCell>
        <mxCell id="gTfDsf9mQsJp9cUVm6Rf-35" style="edgeStyle=orthogonalEdgeStyle;rounded=0;orthogonalLoop=1;jettySize=auto;html=1;entryX=0;entryY=0.5;entryDx=0;entryDy=0;" parent="8cOobXQZzkbbPZnK6C__-1" source="8cOobXQZzkbbPZnK6C__-30" target="8cOobXQZzkbbPZnK6C__-12" edge="1">
          <mxGeometry relative="1" as="geometry" />
        </mxCell>
        <mxCell id="gTfDsf9mQsJp9cUVm6Rf-36" style="edgeStyle=orthogonalEdgeStyle;rounded=0;orthogonalLoop=1;jettySize=auto;html=1;entryX=0;entryY=0.5;entryDx=0;entryDy=0;" parent="8cOobXQZzkbbPZnK6C__-1" source="8cOobXQZzkbbPZnK6C__-29" target="8cOobXQZzkbbPZnK6C__-12" edge="1">
          <mxGeometry relative="1" as="geometry" />
        </mxCell>
        <mxCell id="gTfDsf9mQsJp9cUVm6Rf-37" style="edgeStyle=orthogonalEdgeStyle;rounded=0;orthogonalLoop=1;jettySize=auto;html=1;entryX=0;entryY=0.5;entryDx=0;entryDy=0;" parent="8cOobXQZzkbbPZnK6C__-1" source="8cOobXQZzkbbPZnK6C__-28" target="8cOobXQZzkbbPZnK6C__-12" edge="1">
          <mxGeometry relative="1" as="geometry" />
        </mxCell>
        <mxCell id="gTfDsf9mQsJp9cUVm6Rf-38" style="edgeStyle=orthogonalEdgeStyle;rounded=0;orthogonalLoop=1;jettySize=auto;html=1;entryX=0;entryY=0.5;entryDx=0;entryDy=0;" parent="8cOobXQZzkbbPZnK6C__-1" source="8cOobXQZzkbbPZnK6C__-27" target="8cOobXQZzkbbPZnK6C__-12" edge="1">
          <mxGeometry relative="1" as="geometry" />
        </mxCell>
        <mxCell id="gTfDsf9mQsJp9cUVm6Rf-39" style="edgeStyle=orthogonalEdgeStyle;rounded=0;orthogonalLoop=1;jettySize=auto;html=1;entryX=0;entryY=0.5;entryDx=0;entryDy=0;" parent="8cOobXQZzkbbPZnK6C__-1" source="8cOobXQZzkbbPZnK6C__-26" target="8cOobXQZzkbbPZnK6C__-12" edge="1">
          <mxGeometry relative="1" as="geometry" />
        </mxCell>
        <mxCell id="gTfDsf9mQsJp9cUVm6Rf-45" value="+" style="text;html=1;strokeColor=none;fillColor=none;align=center;verticalAlign=middle;whiteSpace=wrap;rounded=0;opacity=0;fontSize=20;" parent="8cOobXQZzkbbPZnK6C__-1" vertex="1">
          <mxGeometry x="497.5" y="173" width="40" height="25" as="geometry" />
        </mxCell>
        <mxCell id="gTfDsf9mQsJp9cUVm6Rf-46" value="+" style="text;html=1;strokeColor=none;fillColor=none;align=center;verticalAlign=middle;whiteSpace=wrap;rounded=0;opacity=0;fontSize=20;" parent="8cOobXQZzkbbPZnK6C__-1" vertex="1">
          <mxGeometry x="498" y="281" width="40" height="25" as="geometry" />
        </mxCell>
        <mxCell id="gTfDsf9mQsJp9cUVm6Rf-47" value="+" style="text;html=1;strokeColor=none;fillColor=none;align=center;verticalAlign=middle;whiteSpace=wrap;rounded=0;opacity=0;fontSize=20;" parent="8cOobXQZzkbbPZnK6C__-1" vertex="1">
          <mxGeometry x="497.5" y="226" width="40" height="25" as="geometry" />
        </mxCell>
        <mxCell id="gTfDsf9mQsJp9cUVm6Rf-48" value="+" style="text;html=1;strokeColor=none;fillColor=none;align=center;verticalAlign=middle;whiteSpace=wrap;rounded=0;opacity=0;fontSize=20;" parent="8cOobXQZzkbbPZnK6C__-1" vertex="1">
          <mxGeometry x="499" y="336" width="40" height="25" as="geometry" />
        </mxCell>
        <mxCell id="gTfDsf9mQsJp9cUVm6Rf-49" value="+" style="text;html=1;strokeColor=none;fillColor=none;align=center;verticalAlign=middle;whiteSpace=wrap;rounded=0;opacity=0;fontSize=20;" parent="8cOobXQZzkbbPZnK6C__-1" vertex="1">
          <mxGeometry x="499" y="388" width="40" height="25" as="geometry" />
        </mxCell>
      </root>
    </mxGraphModel>
  </diagram>
  <diagram name="Kopie von Hypothesen" id="Oc-l4KoxH99bKj2oTgk9">
    <mxGraphModel dx="1050" dy="501" grid="0" gridSize="10" guides="1" tooltips="1" connect="1" arrows="1" fold="1" page="0" pageScale="1" pageWidth="827" pageHeight="1169" math="0" shadow="0">
      <root>
        <mxCell id="vn2yFeotYzk0FZFo1Jkg-0" />
        <mxCell id="vn2yFeotYzk0FZFo1Jkg-1" parent="vn2yFeotYzk0FZFo1Jkg-0" />
        <mxCell id="vn2yFeotYzk0FZFo1Jkg-2" value="Akzeptanz&lt;br&gt;&amp;nbsp;von KI-Chatbots&lt;br&gt;(Nutzungsabsicht)" style="rounded=1;whiteSpace=wrap;html=1;glass=0;shadow=0;" parent="vn2yFeotYzk0FZFo1Jkg-1" vertex="1">
          <mxGeometry x="763.5" y="252" width="130" height="70" as="geometry" />
        </mxCell>
        <mxCell id="vn2yFeotYzk0FZFo1Jkg-3" value="&lt;font style=&quot;font-size: 11px;&quot;&gt;Relationale Elemente&lt;/font&gt;" style="swimlane;whiteSpace=wrap;html=1;fillColor=#FFFFFF;strokeColor=#CCCCCC;" parent="vn2yFeotYzk0FZFo1Jkg-1" vertex="1">
          <mxGeometry x="580" y="413" width="495" height="90" as="geometry" />
        </mxCell>
        <mxCell id="vn2yFeotYzk0FZFo1Jkg-4" value="Datenschutz-bedenken" style="rounded=0;whiteSpace=wrap;html=1;" parent="vn2yFeotYzk0FZFo1Jkg-3" vertex="1">
          <mxGeometry x="255" y="35" width="110" height="45" as="geometry" />
        </mxCell>
        <mxCell id="vn2yFeotYzk0FZFo1Jkg-5" value="Beziehungsaufbau" style="rounded=0;whiteSpace=wrap;html=1;" parent="vn2yFeotYzk0FZFo1Jkg-3" vertex="1">
          <mxGeometry x="135" y="35" width="110" height="45" as="geometry" />
        </mxCell>
        <mxCell id="vn2yFeotYzk0FZFo1Jkg-6" value="Vertrauen" style="rounded=0;whiteSpace=wrap;html=1;" parent="vn2yFeotYzk0FZFo1Jkg-3" vertex="1">
          <mxGeometry x="15" y="35" width="110" height="45" as="geometry" />
        </mxCell>
        <mxCell id="vn2yFeotYzk0FZFo1Jkg-7" value="Angst vor KI" style="rounded=0;whiteSpace=wrap;html=1;" parent="vn2yFeotYzk0FZFo1Jkg-3" vertex="1">
          <mxGeometry x="375" y="35" width="110" height="45" as="geometry" />
        </mxCell>
        <mxCell id="vn2yFeotYzk0FZFo1Jkg-8" value="&amp;nbsp; &amp;nbsp; &amp;nbsp;Funktionelle Elemente" style="swimlane;whiteSpace=wrap;html=1;fillColor=#FFFFFF;startSize=29;strokeColor=#CCCCCC;fontSize=11;" parent="vn2yFeotYzk0FZFo1Jkg-1" vertex="1">
          <mxGeometry x="550" y="171" width="134" height="200" as="geometry" />
        </mxCell>
        <mxCell id="vn2yFeotYzk0FZFo1Jkg-9" value="Nützlichkeit" style="rounded=0;whiteSpace=wrap;html=1;" parent="vn2yFeotYzk0FZFo1Jkg-8" vertex="1">
          <mxGeometry x="12" y="93.88" width="110" height="44.75" as="geometry" />
        </mxCell>
        <mxCell id="vn2yFeotYzk0FZFo1Jkg-10" value="Soziale Norm" style="rounded=0;whiteSpace=wrap;html=1;" parent="vn2yFeotYzk0FZFo1Jkg-8" vertex="1">
          <mxGeometry x="12" y="149.5" width="110" height="45" as="geometry" />
        </mxCell>
        <mxCell id="vn2yFeotYzk0FZFo1Jkg-11" value="Benutzer-freundlichkeit" style="rounded=0;whiteSpace=wrap;html=1;" parent="vn2yFeotYzk0FZFo1Jkg-8" vertex="1">
          <mxGeometry x="12" y="38.5" width="110" height="45" as="geometry" />
        </mxCell>
        <mxCell id="vn2yFeotYzk0FZFo1Jkg-12" value="Soziale Elemente" style="swimlane;whiteSpace=wrap;html=1;fillColor=#FFFFFF;glass=0;shadow=0;strokeColor=#CCCCCC;fontSize=11;" parent="vn2yFeotYzk0FZFo1Jkg-1" vertex="1">
          <mxGeometry x="635" y="71" width="385" height="90" as="geometry">
            <mxRectangle x="635" y="71" width="133" height="26" as="alternateBounds" />
          </mxGeometry>
        </mxCell>
        <mxCell id="vn2yFeotYzk0FZFo1Jkg-13" value="Soziale Interaktivität" style="rounded=0;whiteSpace=wrap;html=1;" parent="vn2yFeotYzk0FZFo1Jkg-12" vertex="1">
          <mxGeometry x="135" y="35" width="117" height="45" as="geometry" />
        </mxCell>
        <mxCell id="vn2yFeotYzk0FZFo1Jkg-14" value="Soziale Präsenz" style="rounded=0;whiteSpace=wrap;html=1;" parent="vn2yFeotYzk0FZFo1Jkg-12" vertex="1">
          <mxGeometry x="263" y="35" width="110" height="45" as="geometry" />
        </mxCell>
        <mxCell id="vn2yFeotYzk0FZFo1Jkg-15" value="Menschlichkeit" style="rounded=0;whiteSpace=wrap;html=1;" parent="vn2yFeotYzk0FZFo1Jkg-12" vertex="1">
          <mxGeometry x="15" y="35" width="110" height="45" as="geometry" />
        </mxCell>
        <mxCell id="vn2yFeotYzk0FZFo1Jkg-16" value="&amp;nbsp; &amp;nbsp; &amp;nbsp;Anwenderbezogene&lt;br style=&quot;border-color: var(--border-color); font-size: 11px;&quot;&gt;Elemente" style="swimlane;whiteSpace=wrap;html=1;startSize=30;fillColor=#FFFFFF;strokeColor=#CCCCCC;fontSize=11;" parent="vn2yFeotYzk0FZFo1Jkg-1" vertex="1">
          <mxGeometry x="962" y="200" width="133" height="147" as="geometry" />
        </mxCell>
        <mxCell id="vn2yFeotYzk0FZFo1Jkg-17" value="Symbolische&lt;br&gt;Motivation" style="rounded=0;whiteSpace=wrap;html=1;" parent="vn2yFeotYzk0FZFo1Jkg-16" vertex="1">
          <mxGeometry x="14.5" y="39" width="110" height="45" as="geometry" />
        </mxCell>
        <mxCell id="vn2yFeotYzk0FZFo1Jkg-18" value="Hedonismus" style="rounded=0;whiteSpace=wrap;html=1;" parent="vn2yFeotYzk0FZFo1Jkg-16" vertex="1">
          <mxGeometry x="14.5" y="91.75" width="110" height="45" as="geometry" />
        </mxCell>
        <mxCell id="vn2yFeotYzk0FZFo1Jkg-19" value="&amp;nbsp; &amp;nbsp; &amp;nbsp;Systemische &lt;br style=&quot;font-size: 11px;&quot;&gt;Elemente" style="swimlane;whiteSpace=wrap;html=1;startSize=32;fillColor=#FFFFFF;strokeColor=#CCCCCC;fontSize=11;" parent="vn2yFeotYzk0FZFo1Jkg-1" vertex="1">
          <mxGeometry x="382" y="132" width="125" height="310" as="geometry">
            <mxRectangle x="349" y="138.75" width="125" height="41" as="alternateBounds" />
          </mxGeometry>
        </mxCell>
        <mxCell id="vn2yFeotYzk0FZFo1Jkg-20" value="Qualität der Antworten" style="rounded=0;whiteSpace=wrap;html=1;" parent="vn2yFeotYzk0FZFo1Jkg-19" vertex="1">
          <mxGeometry x="9.5" y="42.25" width="110" height="45" as="geometry" />
        </mxCell>
        <mxCell id="vn2yFeotYzk0FZFo1Jkg-21" value="Lernfähigkeit" style="rounded=0;whiteSpace=wrap;html=1;" parent="vn2yFeotYzk0FZFo1Jkg-19" vertex="1">
          <mxGeometry x="9.5" y="94.5" width="110" height="45" as="geometry" />
        </mxCell>
        <mxCell id="vn2yFeotYzk0FZFo1Jkg-22" value="Persönliche&lt;br&gt;Empfehlungen" style="rounded=0;whiteSpace=wrap;html=1;" parent="vn2yFeotYzk0FZFo1Jkg-19" vertex="1">
          <mxGeometry x="9.5" y="148.75" width="110" height="45" as="geometry" />
        </mxCell>
        <mxCell id="vn2yFeotYzk0FZFo1Jkg-23" value="Alternative&amp;nbsp;&lt;br&gt;menschliche Serviceoptionen" style="rounded=0;whiteSpace=wrap;html=1;" parent="vn2yFeotYzk0FZFo1Jkg-19" vertex="1">
          <mxGeometry x="9.5" y="202.25" width="110" height="45" as="geometry" />
        </mxCell>
        <mxCell id="vn2yFeotYzk0FZFo1Jkg-24" value="Erreichbarkeit" style="rounded=0;whiteSpace=wrap;html=1;" parent="vn2yFeotYzk0FZFo1Jkg-19" vertex="1">
          <mxGeometry x="9.5" y="255.25" width="110" height="45" as="geometry" />
        </mxCell>
        <mxCell id="vn2yFeotYzk0FZFo1Jkg-25" value="&amp;nbsp; &amp;nbsp; moderierende Effekte" style="swimlane;whiteSpace=wrap;html=1;startSize=30;fillColor=#FFFFFF;dashed=1;strokeColor=#E6E6E6;" parent="vn2yFeotYzk0FZFo1Jkg-1" vertex="1">
          <mxGeometry x="1118" y="199.5" width="143" height="148" as="geometry" />
        </mxCell>
        <mxCell id="vn2yFeotYzk0FZFo1Jkg-26" value="Bevorzugen menschliche Interaktion" style="rounded=0;whiteSpace=wrap;html=1;strokeColor=#CCCCCC;" parent="vn2yFeotYzk0FZFo1Jkg-25" vertex="1">
          <mxGeometry x="16.5" y="92" width="110" height="45" as="geometry" />
        </mxCell>
        <mxCell id="vn2yFeotYzk0FZFo1Jkg-27" value="Nutzungs-&lt;br&gt;häufigkeit" style="rounded=0;whiteSpace=wrap;html=1;strokeColor=#CCCCCC;" parent="vn2yFeotYzk0FZFo1Jkg-25" vertex="1">
          <mxGeometry x="16.5" y="38" width="110" height="45" as="geometry" />
        </mxCell>
        <mxCell id="vn2yFeotYzk0FZFo1Jkg-28" style="edgeStyle=orthogonalEdgeStyle;rounded=0;orthogonalLoop=1;jettySize=auto;html=1;entryX=-0.003;entryY=0.212;entryDx=0;entryDy=0;entryPerimeter=0;" parent="vn2yFeotYzk0FZFo1Jkg-1" source="vn2yFeotYzk0FZFo1Jkg-11" target="vn2yFeotYzk0FZFo1Jkg-2" edge="1">
          <mxGeometry relative="1" as="geometry">
            <Array as="points">
              <mxPoint x="743" y="232" />
              <mxPoint x="743" y="267" />
            </Array>
          </mxGeometry>
        </mxCell>
        <mxCell id="vn2yFeotYzk0FZFo1Jkg-29" style="edgeStyle=orthogonalEdgeStyle;rounded=0;orthogonalLoop=1;jettySize=auto;html=1;entryX=0;entryY=0.5;entryDx=0;entryDy=0;" parent="vn2yFeotYzk0FZFo1Jkg-1" source="vn2yFeotYzk0FZFo1Jkg-9" target="vn2yFeotYzk0FZFo1Jkg-2" edge="1">
          <mxGeometry relative="1" as="geometry" />
        </mxCell>
        <mxCell id="vn2yFeotYzk0FZFo1Jkg-30" style="edgeStyle=orthogonalEdgeStyle;rounded=0;orthogonalLoop=1;jettySize=auto;html=1;entryX=0.25;entryY=0;entryDx=0;entryDy=0;" parent="vn2yFeotYzk0FZFo1Jkg-1" source="vn2yFeotYzk0FZFo1Jkg-15" target="vn2yFeotYzk0FZFo1Jkg-2" edge="1">
          <mxGeometry relative="1" as="geometry">
            <Array as="points">
              <mxPoint x="715" y="203" />
              <mxPoint x="795" y="203" />
              <mxPoint x="795" y="252" />
            </Array>
          </mxGeometry>
        </mxCell>
        <mxCell id="vn2yFeotYzk0FZFo1Jkg-31" style="edgeStyle=orthogonalEdgeStyle;rounded=0;orthogonalLoop=1;jettySize=auto;html=1;" parent="vn2yFeotYzk0FZFo1Jkg-1" source="vn2yFeotYzk0FZFo1Jkg-13" target="vn2yFeotYzk0FZFo1Jkg-2" edge="1">
          <mxGeometry relative="1" as="geometry" />
        </mxCell>
        <mxCell id="vn2yFeotYzk0FZFo1Jkg-32" style="edgeStyle=orthogonalEdgeStyle;rounded=0;orthogonalLoop=1;jettySize=auto;html=1;entryX=0.75;entryY=0;entryDx=0;entryDy=0;" parent="vn2yFeotYzk0FZFo1Jkg-1" source="vn2yFeotYzk0FZFo1Jkg-14" target="vn2yFeotYzk0FZFo1Jkg-2" edge="1">
          <mxGeometry relative="1" as="geometry">
            <Array as="points">
              <mxPoint x="947" y="202" />
              <mxPoint x="860" y="202" />
              <mxPoint x="860" y="252" />
            </Array>
          </mxGeometry>
        </mxCell>
        <mxCell id="vn2yFeotYzk0FZFo1Jkg-33" style="edgeStyle=orthogonalEdgeStyle;rounded=0;orthogonalLoop=1;jettySize=auto;html=1;entryX=0;entryY=0.75;entryDx=0;entryDy=0;" parent="vn2yFeotYzk0FZFo1Jkg-1" source="vn2yFeotYzk0FZFo1Jkg-10" target="vn2yFeotYzk0FZFo1Jkg-2" edge="1">
          <mxGeometry relative="1" as="geometry">
            <Array as="points">
              <mxPoint x="745" y="343" />
              <mxPoint x="745" y="304" />
            </Array>
          </mxGeometry>
        </mxCell>
        <mxCell id="vn2yFeotYzk0FZFo1Jkg-34" style="edgeStyle=orthogonalEdgeStyle;rounded=0;orthogonalLoop=1;jettySize=auto;html=1;entryX=1;entryY=0.25;entryDx=0;entryDy=0;" parent="vn2yFeotYzk0FZFo1Jkg-1" source="vn2yFeotYzk0FZFo1Jkg-17" target="vn2yFeotYzk0FZFo1Jkg-2" edge="1">
          <mxGeometry relative="1" as="geometry">
            <Array as="points">
              <mxPoint x="894" y="270" />
            </Array>
          </mxGeometry>
        </mxCell>
        <mxCell id="vn2yFeotYzk0FZFo1Jkg-35" style="edgeStyle=orthogonalEdgeStyle;rounded=0;orthogonalLoop=1;jettySize=auto;html=1;entryX=1;entryY=0.75;entryDx=0;entryDy=0;" parent="vn2yFeotYzk0FZFo1Jkg-1" source="vn2yFeotYzk0FZFo1Jkg-18" target="vn2yFeotYzk0FZFo1Jkg-2" edge="1">
          <mxGeometry relative="1" as="geometry">
            <Array as="points">
              <mxPoint x="924" y="305" />
            </Array>
          </mxGeometry>
        </mxCell>
        <mxCell id="vn2yFeotYzk0FZFo1Jkg-36" style="edgeStyle=orthogonalEdgeStyle;rounded=0;orthogonalLoop=1;jettySize=auto;html=1;entryX=0.616;entryY=1.034;entryDx=0;entryDy=0;entryPerimeter=0;" parent="vn2yFeotYzk0FZFo1Jkg-1" source="vn2yFeotYzk0FZFo1Jkg-4" target="vn2yFeotYzk0FZFo1Jkg-2" edge="1">
          <mxGeometry relative="1" as="geometry">
            <Array as="points">
              <mxPoint x="896" y="405" />
              <mxPoint x="844" y="405" />
            </Array>
          </mxGeometry>
        </mxCell>
        <mxCell id="vn2yFeotYzk0FZFo1Jkg-37" style="edgeStyle=orthogonalEdgeStyle;rounded=0;orthogonalLoop=1;jettySize=auto;html=1;entryX=0.808;entryY=0.994;entryDx=0;entryDy=0;entryPerimeter=0;" parent="vn2yFeotYzk0FZFo1Jkg-1" source="vn2yFeotYzk0FZFo1Jkg-7" target="vn2yFeotYzk0FZFo1Jkg-2" edge="1">
          <mxGeometry relative="1" as="geometry">
            <Array as="points">
              <mxPoint x="1010" y="386" />
              <mxPoint x="869" y="386" />
            </Array>
          </mxGeometry>
        </mxCell>
        <mxCell id="vn2yFeotYzk0FZFo1Jkg-38" style="edgeStyle=orthogonalEdgeStyle;rounded=0;orthogonalLoop=1;jettySize=auto;html=1;entryX=0.25;entryY=1;entryDx=0;entryDy=0;" parent="vn2yFeotYzk0FZFo1Jkg-1" edge="1">
          <mxGeometry relative="1" as="geometry">
            <mxPoint x="650" y="450" as="sourcePoint" />
            <mxPoint x="796" y="324" as="targetPoint" />
            <Array as="points">
              <mxPoint x="650" y="386" />
              <mxPoint x="796" y="386" />
            </Array>
          </mxGeometry>
        </mxCell>
        <mxCell id="vn2yFeotYzk0FZFo1Jkg-39" style="edgeStyle=orthogonalEdgeStyle;rounded=0;orthogonalLoop=1;jettySize=auto;html=1;entryX=0.423;entryY=1.024;entryDx=0;entryDy=0;entryPerimeter=0;" parent="vn2yFeotYzk0FZFo1Jkg-1" source="vn2yFeotYzk0FZFo1Jkg-5" target="vn2yFeotYzk0FZFo1Jkg-2" edge="1">
          <mxGeometry relative="1" as="geometry">
            <Array as="points">
              <mxPoint x="758" y="406" />
              <mxPoint x="818" y="406" />
            </Array>
          </mxGeometry>
        </mxCell>
        <mxCell id="vn2yFeotYzk0FZFo1Jkg-40" value="+" style="text;html=1;strokeColor=none;fillColor=none;align=center;verticalAlign=middle;whiteSpace=wrap;rounded=0;opacity=0;fontSize=20;" parent="vn2yFeotYzk0FZFo1Jkg-1" vertex="1">
          <mxGeometry x="733.5" y="180" width="40" height="25" as="geometry" />
        </mxCell>
        <mxCell id="vn2yFeotYzk0FZFo1Jkg-41" value="+" style="text;html=1;strokeColor=none;fillColor=none;align=center;verticalAlign=middle;whiteSpace=wrap;rounded=0;opacity=0;fontSize=20;" parent="vn2yFeotYzk0FZFo1Jkg-1" vertex="1">
          <mxGeometry x="801" y="178" width="40" height="25" as="geometry" />
        </mxCell>
        <mxCell id="vn2yFeotYzk0FZFo1Jkg-42" value="+" style="text;html=1;strokeColor=none;fillColor=none;align=center;verticalAlign=middle;whiteSpace=wrap;rounded=0;opacity=0;fontSize=20;" parent="vn2yFeotYzk0FZFo1Jkg-1" vertex="1">
          <mxGeometry x="684" y="211" width="40" height="25" as="geometry" />
        </mxCell>
        <mxCell id="vn2yFeotYzk0FZFo1Jkg-43" value="+" style="text;html=1;strokeColor=none;fillColor=none;align=center;verticalAlign=middle;whiteSpace=wrap;rounded=0;opacity=0;fontSize=20;" parent="vn2yFeotYzk0FZFo1Jkg-1" vertex="1">
          <mxGeometry x="886" y="179" width="40" height="25" as="geometry" />
        </mxCell>
        <mxCell id="vn2yFeotYzk0FZFo1Jkg-44" value="+" style="text;html=1;strokeColor=none;fillColor=none;align=center;verticalAlign=middle;whiteSpace=wrap;rounded=0;opacity=0;fontSize=20;" parent="vn2yFeotYzk0FZFo1Jkg-1" vertex="1">
          <mxGeometry x="683.5" y="320" width="40" height="25" as="geometry" />
        </mxCell>
        <mxCell id="vn2yFeotYzk0FZFo1Jkg-45" value="+" style="text;html=1;strokeColor=none;fillColor=none;align=center;verticalAlign=middle;whiteSpace=wrap;rounded=0;opacity=0;fontSize=20;" parent="vn2yFeotYzk0FZFo1Jkg-1" vertex="1">
          <mxGeometry x="684" y="266" width="40" height="25" as="geometry" />
        </mxCell>
        <mxCell id="vn2yFeotYzk0FZFo1Jkg-46" value="+" style="text;html=1;strokeColor=none;fillColor=none;align=center;verticalAlign=middle;whiteSpace=wrap;rounded=0;opacity=0;fontSize=20;" parent="vn2yFeotYzk0FZFo1Jkg-1" vertex="1">
          <mxGeometry x="766.5" y="384" width="40" height="25" as="geometry" />
        </mxCell>
        <mxCell id="vn2yFeotYzk0FZFo1Jkg-47" value="+" style="text;html=1;strokeColor=none;fillColor=none;align=center;verticalAlign=middle;whiteSpace=wrap;rounded=0;opacity=0;fontSize=20;" parent="vn2yFeotYzk0FZFo1Jkg-1" vertex="1">
          <mxGeometry x="706" y="359" width="40" height="25" as="geometry" />
        </mxCell>
        <mxCell id="vn2yFeotYzk0FZFo1Jkg-48" value="-" style="text;html=1;strokeColor=none;fillColor=none;align=center;verticalAlign=middle;whiteSpace=wrap;rounded=0;opacity=0;fontSize=20;fontStyle=0" parent="vn2yFeotYzk0FZFo1Jkg-1" vertex="1">
          <mxGeometry x="848.5" y="383" width="40" height="25" as="geometry" />
        </mxCell>
        <mxCell id="vn2yFeotYzk0FZFo1Jkg-49" value="-" style="text;html=1;strokeColor=none;fillColor=none;align=center;verticalAlign=middle;whiteSpace=wrap;rounded=0;opacity=0;fontStyle=0;fontSize=20;" parent="vn2yFeotYzk0FZFo1Jkg-1" vertex="1">
          <mxGeometry x="918.5" y="361" width="40" height="25" as="geometry" />
        </mxCell>
        <mxCell id="vn2yFeotYzk0FZFo1Jkg-50" value="+" style="text;html=1;strokeColor=none;fillColor=none;align=center;verticalAlign=middle;whiteSpace=wrap;rounded=0;opacity=0;fontSize=20;" parent="vn2yFeotYzk0FZFo1Jkg-1" vertex="1">
          <mxGeometry x="915" y="284" width="40" height="25" as="geometry" />
        </mxCell>
        <mxCell id="vn2yFeotYzk0FZFo1Jkg-51" value="+" style="text;html=1;strokeColor=none;fillColor=none;align=center;verticalAlign=middle;whiteSpace=wrap;rounded=0;opacity=0;fontSize=20;" parent="vn2yFeotYzk0FZFo1Jkg-1" vertex="1">
          <mxGeometry x="914.5" y="247" width="40" height="25" as="geometry" />
        </mxCell>
        <mxCell id="vn2yFeotYzk0FZFo1Jkg-52" style="edgeStyle=orthogonalEdgeStyle;rounded=0;orthogonalLoop=1;jettySize=auto;html=1;entryX=0;entryY=0.5;entryDx=0;entryDy=0;" parent="vn2yFeotYzk0FZFo1Jkg-1" source="vn2yFeotYzk0FZFo1Jkg-24" target="vn2yFeotYzk0FZFo1Jkg-9" edge="1">
          <mxGeometry relative="1" as="geometry" />
        </mxCell>
        <mxCell id="vn2yFeotYzk0FZFo1Jkg-53" style="edgeStyle=orthogonalEdgeStyle;rounded=0;orthogonalLoop=1;jettySize=auto;html=1;entryX=0;entryY=0.5;entryDx=0;entryDy=0;" parent="vn2yFeotYzk0FZFo1Jkg-1" source="vn2yFeotYzk0FZFo1Jkg-23" target="vn2yFeotYzk0FZFo1Jkg-9" edge="1">
          <mxGeometry relative="1" as="geometry" />
        </mxCell>
        <mxCell id="vn2yFeotYzk0FZFo1Jkg-54" style="edgeStyle=orthogonalEdgeStyle;rounded=0;orthogonalLoop=1;jettySize=auto;html=1;entryX=0;entryY=0.5;entryDx=0;entryDy=0;" parent="vn2yFeotYzk0FZFo1Jkg-1" source="vn2yFeotYzk0FZFo1Jkg-22" target="vn2yFeotYzk0FZFo1Jkg-9" edge="1">
          <mxGeometry relative="1" as="geometry" />
        </mxCell>
        <mxCell id="vn2yFeotYzk0FZFo1Jkg-55" style="edgeStyle=orthogonalEdgeStyle;rounded=0;orthogonalLoop=1;jettySize=auto;html=1;entryX=0;entryY=0.5;entryDx=0;entryDy=0;" parent="vn2yFeotYzk0FZFo1Jkg-1" source="vn2yFeotYzk0FZFo1Jkg-21" target="vn2yFeotYzk0FZFo1Jkg-9" edge="1">
          <mxGeometry relative="1" as="geometry" />
        </mxCell>
        <mxCell id="vn2yFeotYzk0FZFo1Jkg-56" style="edgeStyle=orthogonalEdgeStyle;rounded=0;orthogonalLoop=1;jettySize=auto;html=1;entryX=0;entryY=0.5;entryDx=0;entryDy=0;" parent="vn2yFeotYzk0FZFo1Jkg-1" source="vn2yFeotYzk0FZFo1Jkg-20" target="vn2yFeotYzk0FZFo1Jkg-9" edge="1">
          <mxGeometry relative="1" as="geometry" />
        </mxCell>
        <mxCell id="vn2yFeotYzk0FZFo1Jkg-57" value="+" style="text;html=1;strokeColor=none;fillColor=none;align=center;verticalAlign=middle;whiteSpace=wrap;rounded=0;opacity=0;fontSize=20;" parent="vn2yFeotYzk0FZFo1Jkg-1" vertex="1">
          <mxGeometry x="497.5" y="173" width="40" height="25" as="geometry" />
        </mxCell>
        <mxCell id="vn2yFeotYzk0FZFo1Jkg-58" value="+" style="text;html=1;strokeColor=none;fillColor=none;align=center;verticalAlign=middle;whiteSpace=wrap;rounded=0;opacity=0;fontSize=20;" parent="vn2yFeotYzk0FZFo1Jkg-1" vertex="1">
          <mxGeometry x="498" y="281" width="40" height="25" as="geometry" />
        </mxCell>
        <mxCell id="vn2yFeotYzk0FZFo1Jkg-59" value="+" style="text;html=1;strokeColor=none;fillColor=none;align=center;verticalAlign=middle;whiteSpace=wrap;rounded=0;opacity=0;fontSize=20;" parent="vn2yFeotYzk0FZFo1Jkg-1" vertex="1">
          <mxGeometry x="497.5" y="226" width="40" height="25" as="geometry" />
        </mxCell>
        <mxCell id="vn2yFeotYzk0FZFo1Jkg-60" value="+" style="text;html=1;strokeColor=none;fillColor=none;align=center;verticalAlign=middle;whiteSpace=wrap;rounded=0;opacity=0;fontSize=20;" parent="vn2yFeotYzk0FZFo1Jkg-1" vertex="1">
          <mxGeometry x="499" y="336" width="40" height="25" as="geometry" />
        </mxCell>
        <mxCell id="vn2yFeotYzk0FZFo1Jkg-61" value="+" style="text;html=1;strokeColor=none;fillColor=none;align=center;verticalAlign=middle;whiteSpace=wrap;rounded=0;opacity=0;fontSize=20;" parent="vn2yFeotYzk0FZFo1Jkg-1" vertex="1">
          <mxGeometry x="499" y="388" width="40" height="25" as="geometry" />
        </mxCell>
      </root>
    </mxGraphModel>
  </diagram>
  <diagram name="Kopie von Hypothesen" id="lC1KpB6w63cX96NfrYkl">
    <mxGraphModel dx="1050" dy="501" grid="0" gridSize="10" guides="1" tooltips="1" connect="1" arrows="1" fold="1" page="0" pageScale="1" pageWidth="827" pageHeight="1169" math="0" shadow="0">
      <root>
        <mxCell id="HEI9oN0_rh66aDYo88No-0" />
        <mxCell id="HEI9oN0_rh66aDYo88No-1" parent="HEI9oN0_rh66aDYo88No-0" />
        <mxCell id="HEI9oN0_rh66aDYo88No-2" value="Akzeptanz&lt;br&gt;&amp;nbsp;von KI-Chatbots&lt;br&gt;(Nutzungsabsicht)" style="rounded=1;whiteSpace=wrap;html=1;glass=0;shadow=0;" parent="HEI9oN0_rh66aDYo88No-1" vertex="1">
          <mxGeometry x="763.5" y="252" width="130" height="70" as="geometry" />
        </mxCell>
        <mxCell id="HEI9oN0_rh66aDYo88No-3" value="&lt;font style=&quot;font-size: 11px;&quot;&gt;Relationale Elemente&lt;/font&gt;" style="swimlane;whiteSpace=wrap;html=1;fillColor=#FFFFFF;strokeColor=#CCCCCC;" parent="HEI9oN0_rh66aDYo88No-1" vertex="1">
          <mxGeometry x="580" y="413" width="495" height="90" as="geometry" />
        </mxCell>
        <mxCell id="HEI9oN0_rh66aDYo88No-4" value="Datenschutz-bedenken" style="rounded=0;whiteSpace=wrap;html=1;" parent="HEI9oN0_rh66aDYo88No-3" vertex="1">
          <mxGeometry x="255" y="35" width="110" height="45" as="geometry" />
        </mxCell>
        <mxCell id="HEI9oN0_rh66aDYo88No-5" value="Beziehungsaufbau" style="rounded=0;whiteSpace=wrap;html=1;" parent="HEI9oN0_rh66aDYo88No-3" vertex="1">
          <mxGeometry x="135" y="35" width="110" height="45" as="geometry" />
        </mxCell>
        <mxCell id="HEI9oN0_rh66aDYo88No-6" value="Vertrauen" style="rounded=0;whiteSpace=wrap;html=1;" parent="HEI9oN0_rh66aDYo88No-3" vertex="1">
          <mxGeometry x="15" y="35" width="110" height="45" as="geometry" />
        </mxCell>
        <mxCell id="HEI9oN0_rh66aDYo88No-7" value="Angst vor KI" style="rounded=0;whiteSpace=wrap;html=1;" parent="HEI9oN0_rh66aDYo88No-3" vertex="1">
          <mxGeometry x="375" y="35" width="110" height="45" as="geometry" />
        </mxCell>
        <mxCell id="HEI9oN0_rh66aDYo88No-8" value="&amp;nbsp; &amp;nbsp; &amp;nbsp;Funktionelle Elemente" style="swimlane;whiteSpace=wrap;html=1;fillColor=#FFFFFF;startSize=29;strokeColor=#CCCCCC;fontSize=11;" parent="HEI9oN0_rh66aDYo88No-1" vertex="1">
          <mxGeometry x="550" y="171" width="127" height="200" as="geometry" />
        </mxCell>
        <mxCell id="HEI9oN0_rh66aDYo88No-9" value="Nützlichkeit" style="rounded=0;whiteSpace=wrap;html=1;" parent="HEI9oN0_rh66aDYo88No-8" vertex="1">
          <mxGeometry x="12" y="93.88" width="110" height="44.75" as="geometry" />
        </mxCell>
        <mxCell id="HEI9oN0_rh66aDYo88No-10" value="Soziale Norm" style="rounded=0;whiteSpace=wrap;html=1;" parent="HEI9oN0_rh66aDYo88No-8" vertex="1">
          <mxGeometry x="12" y="149.5" width="110" height="45" as="geometry" />
        </mxCell>
        <mxCell id="HEI9oN0_rh66aDYo88No-11" value="Benutzer-freundlichkeit" style="rounded=0;whiteSpace=wrap;html=1;" parent="HEI9oN0_rh66aDYo88No-8" vertex="1">
          <mxGeometry x="12" y="38.5" width="110" height="45" as="geometry" />
        </mxCell>
        <mxCell id="HEI9oN0_rh66aDYo88No-12" value="Soziale Elemente" style="swimlane;whiteSpace=wrap;html=1;fillColor=#FFFFFF;glass=0;shadow=0;strokeColor=#CCCCCC;fontSize=11;" parent="HEI9oN0_rh66aDYo88No-1" vertex="1">
          <mxGeometry x="635" y="71" width="385" height="90" as="geometry">
            <mxRectangle x="635" y="71" width="133" height="26" as="alternateBounds" />
          </mxGeometry>
        </mxCell>
        <mxCell id="HEI9oN0_rh66aDYo88No-13" value="Soziale Interaktivität" style="rounded=0;whiteSpace=wrap;html=1;" parent="HEI9oN0_rh66aDYo88No-12" vertex="1">
          <mxGeometry x="135" y="35" width="117" height="45" as="geometry" />
        </mxCell>
        <mxCell id="HEI9oN0_rh66aDYo88No-14" value="Soziale Präsenz" style="rounded=0;whiteSpace=wrap;html=1;" parent="HEI9oN0_rh66aDYo88No-12" vertex="1">
          <mxGeometry x="263" y="35" width="110" height="45" as="geometry" />
        </mxCell>
        <mxCell id="HEI9oN0_rh66aDYo88No-15" value="Menschlichkeit" style="rounded=0;whiteSpace=wrap;html=1;" parent="HEI9oN0_rh66aDYo88No-12" vertex="1">
          <mxGeometry x="15" y="35" width="110" height="45" as="geometry" />
        </mxCell>
        <mxCell id="HEI9oN0_rh66aDYo88No-16" value="&amp;nbsp; &amp;nbsp; &amp;nbsp;Anwenderbezogene&lt;br style=&quot;border-color: var(--border-color); font-size: 11px;&quot;&gt;Elemente" style="swimlane;whiteSpace=wrap;html=1;startSize=30;fillColor=#FFFFFF;strokeColor=#CCCCCC;fontSize=11;" parent="HEI9oN0_rh66aDYo88No-1" vertex="1">
          <mxGeometry x="962" y="200" width="133" height="147" as="geometry" />
        </mxCell>
        <mxCell id="HEI9oN0_rh66aDYo88No-17" value="Symbolische&lt;br&gt;Motivation" style="rounded=0;whiteSpace=wrap;html=1;" parent="HEI9oN0_rh66aDYo88No-16" vertex="1">
          <mxGeometry x="14.5" y="39" width="110" height="45" as="geometry" />
        </mxCell>
        <mxCell id="HEI9oN0_rh66aDYo88No-18" value="Hedonismus" style="rounded=0;whiteSpace=wrap;html=1;" parent="HEI9oN0_rh66aDYo88No-16" vertex="1">
          <mxGeometry x="14.5" y="91.75" width="110" height="45" as="geometry" />
        </mxCell>
        <mxCell id="HEI9oN0_rh66aDYo88No-19" value="&amp;nbsp; &amp;nbsp; &amp;nbsp;Systemische &lt;br style=&quot;font-size: 11px;&quot;&gt;Elemente" style="swimlane;whiteSpace=wrap;html=1;startSize=32;fillColor=#FFFFFF;strokeColor=#CCCCCC;fontSize=11;" parent="HEI9oN0_rh66aDYo88No-1" vertex="1">
          <mxGeometry x="382" y="132" width="122" height="310" as="geometry">
            <mxRectangle x="349" y="138.75" width="125" height="41" as="alternateBounds" />
          </mxGeometry>
        </mxCell>
        <mxCell id="HEI9oN0_rh66aDYo88No-20" value="Qualität der Antworten" style="rounded=0;whiteSpace=wrap;html=1;" parent="HEI9oN0_rh66aDYo88No-19" vertex="1">
          <mxGeometry x="9.5" y="42.25" width="110" height="45" as="geometry" />
        </mxCell>
        <mxCell id="HEI9oN0_rh66aDYo88No-21" value="Lernfähigkeit" style="rounded=0;whiteSpace=wrap;html=1;" parent="HEI9oN0_rh66aDYo88No-19" vertex="1">
          <mxGeometry x="9.5" y="94.5" width="110" height="45" as="geometry" />
        </mxCell>
        <mxCell id="HEI9oN0_rh66aDYo88No-22" value="Persönliche&lt;br&gt;Empfehlungen" style="rounded=0;whiteSpace=wrap;html=1;" parent="HEI9oN0_rh66aDYo88No-19" vertex="1">
          <mxGeometry x="9.5" y="148.75" width="110" height="45" as="geometry" />
        </mxCell>
        <mxCell id="HEI9oN0_rh66aDYo88No-23" value="Alternative&amp;nbsp;&lt;br&gt;menschliche Serviceoptionen" style="rounded=0;whiteSpace=wrap;html=1;" parent="HEI9oN0_rh66aDYo88No-19" vertex="1">
          <mxGeometry x="9.5" y="202.25" width="110" height="45" as="geometry" />
        </mxCell>
        <mxCell id="HEI9oN0_rh66aDYo88No-24" value="Erreichbarkeit" style="rounded=0;whiteSpace=wrap;html=1;" parent="HEI9oN0_rh66aDYo88No-19" vertex="1">
          <mxGeometry x="9.5" y="255.25" width="110" height="45" as="geometry" />
        </mxCell>
        <mxCell id="HEI9oN0_rh66aDYo88No-25" value="Kontrollvariablen" style="swimlane;whiteSpace=wrap;html=1;startSize=30;fillColor=#FFFFFF;dashed=1;strokeColor=#E6E6E6;" parent="HEI9oN0_rh66aDYo88No-1" vertex="1">
          <mxGeometry x="1133" y="172" width="143" height="212" as="geometry" />
        </mxCell>
        <mxCell id="HEI9oN0_rh66aDYo88No-26" value="Bevorzugte menschliche Interaktion" style="rounded=0;whiteSpace=wrap;html=1;strokeColor=#CCCCCC;" parent="HEI9oN0_rh66aDYo88No-25" vertex="1">
          <mxGeometry x="20" y="96.5" width="110" height="45" as="geometry" />
        </mxCell>
        <mxCell id="HEI9oN0_rh66aDYo88No-27" value="Technologie-&lt;br&gt;affinität" style="rounded=0;whiteSpace=wrap;html=1;strokeColor=#CCCCCC;" parent="HEI9oN0_rh66aDYo88No-25" vertex="1">
          <mxGeometry x="20" y="150.75" width="110" height="45" as="geometry" />
        </mxCell>
        <mxCell id="HEI9oN0_rh66aDYo88No-28" value="Erfahrung" style="rounded=0;whiteSpace=wrap;html=1;strokeColor=#CCCCCC;" parent="HEI9oN0_rh66aDYo88No-25" vertex="1">
          <mxGeometry x="20" y="44.25" width="110" height="45" as="geometry" />
        </mxCell>
        <mxCell id="HEI9oN0_rh66aDYo88No-29" style="edgeStyle=orthogonalEdgeStyle;rounded=0;orthogonalLoop=1;jettySize=auto;html=1;entryX=-0.003;entryY=0.212;entryDx=0;entryDy=0;entryPerimeter=0;strokeColor=#ababab;" parent="HEI9oN0_rh66aDYo88No-1" source="HEI9oN0_rh66aDYo88No-11" target="HEI9oN0_rh66aDYo88No-2" edge="1">
          <mxGeometry relative="1" as="geometry">
            <Array as="points">
              <mxPoint x="743" y="232" />
              <mxPoint x="743" y="267" />
            </Array>
          </mxGeometry>
        </mxCell>
        <mxCell id="HEI9oN0_rh66aDYo88No-30" style="edgeStyle=orthogonalEdgeStyle;rounded=0;orthogonalLoop=1;jettySize=auto;html=1;entryX=0;entryY=0.5;entryDx=0;entryDy=0;strokeWidth=2;" parent="HEI9oN0_rh66aDYo88No-1" source="HEI9oN0_rh66aDYo88No-9" target="HEI9oN0_rh66aDYo88No-2" edge="1">
          <mxGeometry relative="1" as="geometry" />
        </mxCell>
        <mxCell id="HEI9oN0_rh66aDYo88No-31" style="edgeStyle=orthogonalEdgeStyle;rounded=0;orthogonalLoop=1;jettySize=auto;html=1;entryX=0.25;entryY=0;entryDx=0;entryDy=0;strokeColor=#ababab;" parent="HEI9oN0_rh66aDYo88No-1" source="HEI9oN0_rh66aDYo88No-15" target="HEI9oN0_rh66aDYo88No-2" edge="1">
          <mxGeometry relative="1" as="geometry">
            <Array as="points">
              <mxPoint x="715" y="203" />
              <mxPoint x="795" y="203" />
              <mxPoint x="795" y="248" />
              <mxPoint x="796" y="248" />
            </Array>
          </mxGeometry>
        </mxCell>
        <mxCell id="HEI9oN0_rh66aDYo88No-32" style="edgeStyle=orthogonalEdgeStyle;rounded=0;orthogonalLoop=1;jettySize=auto;html=1;strokeColor=#ababab;" parent="HEI9oN0_rh66aDYo88No-1" source="HEI9oN0_rh66aDYo88No-13" target="HEI9oN0_rh66aDYo88No-2" edge="1">
          <mxGeometry relative="1" as="geometry" />
        </mxCell>
        <mxCell id="HEI9oN0_rh66aDYo88No-33" style="edgeStyle=orthogonalEdgeStyle;rounded=0;orthogonalLoop=1;jettySize=auto;html=1;strokeColor=#ababab;" parent="HEI9oN0_rh66aDYo88No-1" source="HEI9oN0_rh66aDYo88No-14" target="HEI9oN0_rh66aDYo88No-2" edge="1">
          <mxGeometry relative="1" as="geometry">
            <Array as="points">
              <mxPoint x="947" y="202" />
              <mxPoint x="860" y="202" />
            </Array>
          </mxGeometry>
        </mxCell>
        <mxCell id="HEI9oN0_rh66aDYo88No-34" style="edgeStyle=orthogonalEdgeStyle;rounded=0;orthogonalLoop=1;jettySize=auto;html=1;entryX=0;entryY=0.75;entryDx=0;entryDy=0;strokeColor=#ababab;" parent="HEI9oN0_rh66aDYo88No-1" source="HEI9oN0_rh66aDYo88No-10" target="HEI9oN0_rh66aDYo88No-2" edge="1">
          <mxGeometry relative="1" as="geometry">
            <Array as="points">
              <mxPoint x="745" y="343" />
              <mxPoint x="745" y="304" />
            </Array>
          </mxGeometry>
        </mxCell>
        <mxCell id="HEI9oN0_rh66aDYo88No-35" style="edgeStyle=orthogonalEdgeStyle;rounded=0;orthogonalLoop=1;jettySize=auto;html=1;entryX=1;entryY=0.25;entryDx=0;entryDy=0;strokeWidth=2;" parent="HEI9oN0_rh66aDYo88No-1" source="HEI9oN0_rh66aDYo88No-17" target="HEI9oN0_rh66aDYo88No-2" edge="1">
          <mxGeometry relative="1" as="geometry">
            <Array as="points">
              <mxPoint x="894" y="270" />
            </Array>
          </mxGeometry>
        </mxCell>
        <mxCell id="HEI9oN0_rh66aDYo88No-36" style="edgeStyle=orthogonalEdgeStyle;rounded=0;orthogonalLoop=1;jettySize=auto;html=1;entryX=1;entryY=0.75;entryDx=0;entryDy=0;strokeWidth=2;" parent="HEI9oN0_rh66aDYo88No-1" source="HEI9oN0_rh66aDYo88No-18" target="HEI9oN0_rh66aDYo88No-2" edge="1">
          <mxGeometry relative="1" as="geometry">
            <Array as="points">
              <mxPoint x="924" y="305" />
            </Array>
          </mxGeometry>
        </mxCell>
        <mxCell id="HEI9oN0_rh66aDYo88No-37" style="edgeStyle=orthogonalEdgeStyle;rounded=0;orthogonalLoop=1;jettySize=auto;html=1;entryX=0.616;entryY=1.034;entryDx=0;entryDy=0;entryPerimeter=0;strokeColor=#ababab;" parent="HEI9oN0_rh66aDYo88No-1" source="HEI9oN0_rh66aDYo88No-4" target="HEI9oN0_rh66aDYo88No-2" edge="1">
          <mxGeometry relative="1" as="geometry">
            <Array as="points">
              <mxPoint x="896" y="405" />
              <mxPoint x="844" y="405" />
            </Array>
          </mxGeometry>
        </mxCell>
        <mxCell id="HEI9oN0_rh66aDYo88No-38" style="edgeStyle=orthogonalEdgeStyle;rounded=0;orthogonalLoop=1;jettySize=auto;html=1;entryX=0.808;entryY=0.994;entryDx=0;entryDy=0;entryPerimeter=0;strokeWidth=2;" parent="HEI9oN0_rh66aDYo88No-1" source="HEI9oN0_rh66aDYo88No-7" target="HEI9oN0_rh66aDYo88No-2" edge="1">
          <mxGeometry relative="1" as="geometry">
            <Array as="points">
              <mxPoint x="1010" y="386" />
              <mxPoint x="869" y="386" />
            </Array>
          </mxGeometry>
        </mxCell>
        <mxCell id="HEI9oN0_rh66aDYo88No-39" style="edgeStyle=orthogonalEdgeStyle;rounded=0;orthogonalLoop=1;jettySize=auto;html=1;entryX=0.25;entryY=1;entryDx=0;entryDy=0;exitX=0.5;exitY=0;exitDx=0;exitDy=0;strokeWidth=2;" parent="HEI9oN0_rh66aDYo88No-1" source="HEI9oN0_rh66aDYo88No-6" edge="1">
          <mxGeometry relative="1" as="geometry">
            <mxPoint x="650" y="450" as="sourcePoint" />
            <mxPoint x="796" y="324" as="targetPoint" />
            <Array as="points">
              <mxPoint x="650" y="386" />
              <mxPoint x="796" y="386" />
            </Array>
          </mxGeometry>
        </mxCell>
        <mxCell id="HEI9oN0_rh66aDYo88No-40" style="edgeStyle=orthogonalEdgeStyle;rounded=0;orthogonalLoop=1;jettySize=auto;html=1;entryX=0.423;entryY=1.024;entryDx=0;entryDy=0;entryPerimeter=0;strokeColor=#ababab;" parent="HEI9oN0_rh66aDYo88No-1" source="HEI9oN0_rh66aDYo88No-5" target="HEI9oN0_rh66aDYo88No-2" edge="1">
          <mxGeometry relative="1" as="geometry">
            <Array as="points">
              <mxPoint x="758" y="406" />
              <mxPoint x="818" y="406" />
            </Array>
          </mxGeometry>
        </mxCell>
        <mxCell id="HEI9oN0_rh66aDYo88No-41" value="-0,057" style="text;html=1;strokeColor=none;fillColor=none;align=center;verticalAlign=middle;whiteSpace=wrap;rounded=0;opacity=0;fontSize=10;" parent="HEI9oN0_rh66aDYo88No-1" vertex="1">
          <mxGeometry x="732.5" y="183" width="40" height="25" as="geometry" />
        </mxCell>
        <mxCell id="HEI9oN0_rh66aDYo88No-42" value="0,059" style="text;html=1;strokeColor=none;fillColor=none;align=center;verticalAlign=middle;whiteSpace=wrap;rounded=0;opacity=0;fontSize=10;" parent="HEI9oN0_rh66aDYo88No-1" vertex="1">
          <mxGeometry x="794" y="182" width="40" height="25" as="geometry" />
        </mxCell>
        <mxCell id="HEI9oN0_rh66aDYo88No-43" value="&lt;font style=&quot;font-size: 10px;&quot;&gt;0,020&lt;/font&gt;" style="text;html=1;strokeColor=none;fillColor=none;align=center;verticalAlign=middle;whiteSpace=wrap;rounded=0;opacity=0;fontSize=20;" parent="HEI9oN0_rh66aDYo88No-1" vertex="1">
          <mxGeometry x="684" y="209" width="40" height="25" as="geometry" />
        </mxCell>
        <mxCell id="HEI9oN0_rh66aDYo88No-44" value="-0,027" style="text;html=1;strokeColor=none;fillColor=none;align=center;verticalAlign=middle;whiteSpace=wrap;rounded=0;opacity=0;fontSize=10;" parent="HEI9oN0_rh66aDYo88No-1" vertex="1">
          <mxGeometry x="887" y="181" width="40" height="25" as="geometry" />
        </mxCell>
        <mxCell id="HEI9oN0_rh66aDYo88No-45" value="&lt;font style=&quot;font-size: 10px;&quot;&gt;-0,040&lt;/font&gt;" style="text;html=1;strokeColor=none;fillColor=none;align=center;verticalAlign=middle;whiteSpace=wrap;rounded=0;opacity=0;fontSize=20;" parent="HEI9oN0_rh66aDYo88No-1" vertex="1">
          <mxGeometry x="683.5" y="319" width="40" height="25" as="geometry" />
        </mxCell>
        <mxCell id="HEI9oN0_rh66aDYo88No-46" value="&lt;font style=&quot;font-size: 12px;&quot;&gt;&lt;b&gt;0,237&lt;/b&gt;&lt;/font&gt;" style="text;html=1;strokeColor=none;fillColor=none;align=center;verticalAlign=middle;whiteSpace=wrap;rounded=0;opacity=0;fontSize=20;" parent="HEI9oN0_rh66aDYo88No-1" vertex="1">
          <mxGeometry x="684" y="264" width="40" height="25" as="geometry" />
        </mxCell>
        <mxCell id="HEI9oN0_rh66aDYo88No-47" value="0,076" style="text;html=1;strokeColor=none;fillColor=none;align=center;verticalAlign=middle;whiteSpace=wrap;rounded=0;opacity=0;fontSize=10;" parent="HEI9oN0_rh66aDYo88No-1" vertex="1">
          <mxGeometry x="768.5" y="386" width="40" height="25" as="geometry" />
        </mxCell>
        <mxCell id="HEI9oN0_rh66aDYo88No-48" value="0,205" style="text;html=1;strokeColor=none;fillColor=none;align=center;verticalAlign=middle;whiteSpace=wrap;rounded=0;opacity=0;fontSize=12;fontStyle=1" parent="HEI9oN0_rh66aDYo88No-1" vertex="1">
          <mxGeometry x="706" y="365" width="40" height="25" as="geometry" />
        </mxCell>
        <mxCell id="HEI9oN0_rh66aDYo88No-49" value="-0,008" style="text;html=1;strokeColor=none;fillColor=none;align=center;verticalAlign=middle;whiteSpace=wrap;rounded=0;opacity=0;fontSize=10;fontStyle=0" parent="HEI9oN0_rh66aDYo88No-1" vertex="1">
          <mxGeometry x="847.5" y="386" width="40" height="25" as="geometry" />
        </mxCell>
        <mxCell id="HEI9oN0_rh66aDYo88No-50" value="-0,189" style="text;html=1;strokeColor=none;fillColor=none;align=center;verticalAlign=middle;whiteSpace=wrap;rounded=0;opacity=0;fontStyle=1;fontSize=12;" parent="HEI9oN0_rh66aDYo88No-1" vertex="1">
          <mxGeometry x="918.5" y="364" width="40" height="25" as="geometry" />
        </mxCell>
        <mxCell id="HEI9oN0_rh66aDYo88No-51" value="0,223" style="text;html=1;strokeColor=none;fillColor=none;align=center;verticalAlign=middle;whiteSpace=wrap;rounded=0;opacity=0;fontSize=12;fontStyle=1" parent="HEI9oN0_rh66aDYo88No-1" vertex="1">
          <mxGeometry x="915" y="284" width="40" height="25" as="geometry" />
        </mxCell>
        <mxCell id="HEI9oN0_rh66aDYo88No-52" value="0,205" style="text;html=1;strokeColor=none;fillColor=none;align=center;verticalAlign=middle;whiteSpace=wrap;rounded=0;opacity=0;fontSize=12;fontStyle=1" parent="HEI9oN0_rh66aDYo88No-1" vertex="1">
          <mxGeometry x="914.5" y="247" width="40" height="25" as="geometry" />
        </mxCell>
        <mxCell id="HEI9oN0_rh66aDYo88No-53" style="edgeStyle=orthogonalEdgeStyle;rounded=0;orthogonalLoop=1;jettySize=auto;html=1;entryX=0;entryY=0.5;entryDx=0;entryDy=0;strokeColor=#ababab;" parent="HEI9oN0_rh66aDYo88No-1" source="HEI9oN0_rh66aDYo88No-24" target="HEI9oN0_rh66aDYo88No-9" edge="1">
          <mxGeometry relative="1" as="geometry">
            <Array as="points">
              <mxPoint x="538" y="410" />
              <mxPoint x="538" y="287" />
            </Array>
          </mxGeometry>
        </mxCell>
        <mxCell id="HEI9oN0_rh66aDYo88No-54" style="edgeStyle=orthogonalEdgeStyle;rounded=0;orthogonalLoop=1;jettySize=auto;html=1;entryX=0;entryY=0.5;entryDx=0;entryDy=0;strokeColor=#CCCCCC;" parent="HEI9oN0_rh66aDYo88No-1" source="HEI9oN0_rh66aDYo88No-23" target="HEI9oN0_rh66aDYo88No-9" edge="1">
          <mxGeometry relative="1" as="geometry">
            <Array as="points">
              <mxPoint x="538" y="357" />
              <mxPoint x="538" y="287" />
            </Array>
          </mxGeometry>
        </mxCell>
        <mxCell id="HEI9oN0_rh66aDYo88No-55" style="edgeStyle=orthogonalEdgeStyle;rounded=0;orthogonalLoop=1;jettySize=auto;html=1;entryX=0;entryY=0.5;entryDx=0;entryDy=0;strokeWidth=2;" parent="HEI9oN0_rh66aDYo88No-1" source="HEI9oN0_rh66aDYo88No-22" target="HEI9oN0_rh66aDYo88No-9" edge="1">
          <mxGeometry relative="1" as="geometry">
            <Array as="points">
              <mxPoint x="538" y="303" />
              <mxPoint x="538" y="287" />
            </Array>
          </mxGeometry>
        </mxCell>
        <mxCell id="HEI9oN0_rh66aDYo88No-56" style="edgeStyle=orthogonalEdgeStyle;rounded=0;orthogonalLoop=1;jettySize=auto;html=1;entryX=0;entryY=0.5;entryDx=0;entryDy=0;" parent="HEI9oN0_rh66aDYo88No-1" source="HEI9oN0_rh66aDYo88No-21" target="HEI9oN0_rh66aDYo88No-9" edge="1">
          <mxGeometry relative="1" as="geometry">
            <Array as="points">
              <mxPoint x="538" y="249" />
              <mxPoint x="538" y="287" />
            </Array>
          </mxGeometry>
        </mxCell>
        <mxCell id="HEI9oN0_rh66aDYo88No-57" style="edgeStyle=orthogonalEdgeStyle;rounded=0;orthogonalLoop=1;jettySize=auto;html=1;entryX=0;entryY=0.5;entryDx=0;entryDy=0;strokeWidth=2;" parent="HEI9oN0_rh66aDYo88No-1" source="HEI9oN0_rh66aDYo88No-20" target="HEI9oN0_rh66aDYo88No-9" edge="1">
          <mxGeometry relative="1" as="geometry">
            <Array as="points">
              <mxPoint x="538" y="197" />
              <mxPoint x="538" y="287" />
            </Array>
          </mxGeometry>
        </mxCell>
        <mxCell id="HEI9oN0_rh66aDYo88No-58" value="&lt;font style=&quot;font-size: 12px;&quot;&gt;0,402&lt;/font&gt;" style="text;html=1;strokeColor=none;fillColor=none;align=center;verticalAlign=middle;whiteSpace=wrap;rounded=0;opacity=0;fontSize=12;fontStyle=1" parent="HEI9oN0_rh66aDYo88No-1" vertex="1">
          <mxGeometry x="500.5" y="174" width="40" height="25" as="geometry" />
        </mxCell>
        <mxCell id="HEI9oN0_rh66aDYo88No-60" value="&lt;font style=&quot;font-size: 10px;&quot;&gt;0,137&lt;/font&gt;" style="text;html=1;strokeColor=none;fillColor=none;align=center;verticalAlign=middle;whiteSpace=wrap;rounded=0;opacity=0;fontSize=20;" parent="HEI9oN0_rh66aDYo88No-1" vertex="1">
          <mxGeometry x="500.5" y="225" width="40" height="25" as="geometry" />
        </mxCell>
        <mxCell id="HEI9oN0_rh66aDYo88No-61" value="&lt;font style=&quot;font-size: 10px;&quot;&gt;0,106&lt;/font&gt;" style="text;html=1;strokeColor=none;fillColor=none;align=center;verticalAlign=middle;whiteSpace=wrap;rounded=0;opacity=0;fontSize=20;" parent="HEI9oN0_rh66aDYo88No-1" vertex="1">
          <mxGeometry x="501" y="333" width="40" height="25" as="geometry" />
        </mxCell>
        <mxCell id="HEI9oN0_rh66aDYo88No-62" value="&lt;font style=&quot;font-size: 10px;&quot;&gt;0,029&lt;/font&gt;" style="text;html=1;strokeColor=none;fillColor=none;align=center;verticalAlign=middle;whiteSpace=wrap;rounded=0;opacity=0;fontSize=20;" parent="HEI9oN0_rh66aDYo88No-1" vertex="1">
          <mxGeometry x="502" y="385" width="40" height="25" as="geometry" />
        </mxCell>
        <mxCell id="HEI9oN0_rh66aDYo88No-59" value="&lt;font style=&quot;font-size: 12px;&quot;&gt;0,157&lt;/font&gt;" style="text;html=1;strokeColor=none;fillColor=none;align=center;verticalAlign=middle;whiteSpace=wrap;rounded=0;opacity=0;fontSize=12;fontStyle=1" parent="HEI9oN0_rh66aDYo88No-1" vertex="1">
          <mxGeometry x="499.5" y="280.75" width="40" height="25" as="geometry" />
        </mxCell>
      </root>
    </mxGraphModel>
  </diagram>
  <diagram name="Moderator" id="VETqL-4AxfITnT2FfDyb">
    <mxGraphModel dx="955" dy="455" grid="0" gridSize="10" guides="1" tooltips="1" connect="1" arrows="1" fold="1" page="0" pageScale="1" pageWidth="827" pageHeight="1169" math="0" shadow="0">
      <root>
        <mxCell id="Rx21Ho5yi4vYeOvrqYfL-0" />
        <mxCell id="Rx21Ho5yi4vYeOvrqYfL-1" parent="Rx21Ho5yi4vYeOvrqYfL-0" />
        <mxCell id="Rx21Ho5yi4vYeOvrqYfL-2" value="Akzeptanz&lt;br&gt;&amp;nbsp;von KI-Chatbots&lt;br&gt;(Nutzungsabsicht)" style="rounded=1;whiteSpace=wrap;html=1;glass=0;shadow=0;strokeWidth=1;" vertex="1" parent="Rx21Ho5yi4vYeOvrqYfL-1">
          <mxGeometry x="763.5" y="252" width="130" height="70" as="geometry" />
        </mxCell>
        <mxCell id="Rx21Ho5yi4vYeOvrqYfL-3" value="&lt;font style=&quot;font-size: 11px;&quot;&gt;Relationale Elemente&lt;/font&gt;" style="swimlane;whiteSpace=wrap;html=1;fillColor=#FFFFFF;strokeColor=#CCCCCC;swimlaneLine=0;verticalAlign=middle;fontColor=#CCCCCC;" vertex="1" parent="Rx21Ho5yi4vYeOvrqYfL-1">
          <mxGeometry x="580" y="413" width="495" height="90" as="geometry" />
        </mxCell>
        <mxCell id="Rx21Ho5yi4vYeOvrqYfL-4" value="Datenschutz-bedenken" style="rounded=0;whiteSpace=wrap;html=1;strokeColor=#CCCCCC;" vertex="1" parent="Rx21Ho5yi4vYeOvrqYfL-3">
          <mxGeometry x="255" y="35" width="110" height="45" as="geometry" />
        </mxCell>
        <mxCell id="Rx21Ho5yi4vYeOvrqYfL-5" value="Beziehungsaufbau" style="rounded=0;whiteSpace=wrap;html=1;" vertex="1" parent="Rx21Ho5yi4vYeOvrqYfL-3">
          <mxGeometry x="135" y="35" width="110" height="45" as="geometry" />
        </mxCell>
        <mxCell id="Rx21Ho5yi4vYeOvrqYfL-6" value="Vertrauen" style="rounded=0;whiteSpace=wrap;html=1;strokeColor=#CCCCCC;" vertex="1" parent="Rx21Ho5yi4vYeOvrqYfL-3">
          <mxGeometry x="15" y="35" width="110" height="45" as="geometry" />
        </mxCell>
        <mxCell id="Rx21Ho5yi4vYeOvrqYfL-7" value="Angst vor KI" style="rounded=0;whiteSpace=wrap;html=1;" vertex="1" parent="Rx21Ho5yi4vYeOvrqYfL-3">
          <mxGeometry x="375" y="35" width="110" height="45" as="geometry" />
        </mxCell>
        <mxCell id="Rx21Ho5yi4vYeOvrqYfL-8" value="&lt;font color=&quot;#cccccc&quot;&gt;&amp;nbsp; &amp;nbsp; &amp;nbsp;Funktionelle Elemente&lt;/font&gt;" style="swimlane;whiteSpace=wrap;html=1;fillColor=#FFFFFF;startSize=29;strokeColor=#CCCCCC;fontSize=11;swimlaneLine=0;" vertex="1" parent="Rx21Ho5yi4vYeOvrqYfL-1">
          <mxGeometry x="550" y="171" width="127" height="200" as="geometry" />
        </mxCell>
        <mxCell id="Rx21Ho5yi4vYeOvrqYfL-9" value="Nützlichkeit" style="rounded=0;whiteSpace=wrap;html=1;strokeColor=#CCCCCC;" vertex="1" parent="Rx21Ho5yi4vYeOvrqYfL-8">
          <mxGeometry x="12" y="93.88" width="110" height="44.75" as="geometry" />
        </mxCell>
        <mxCell id="Rx21Ho5yi4vYeOvrqYfL-10" value="Soziale Norm" style="rounded=0;whiteSpace=wrap;html=1;strokeColor=#CCCCCC;" vertex="1" parent="Rx21Ho5yi4vYeOvrqYfL-8">
          <mxGeometry x="12" y="149.5" width="110" height="45" as="geometry" />
        </mxCell>
        <mxCell id="Rx21Ho5yi4vYeOvrqYfL-11" value="Benutzer-freundlichkeit" style="rounded=0;whiteSpace=wrap;html=1;strokeColor=#CCCCCC;" vertex="1" parent="Rx21Ho5yi4vYeOvrqYfL-8">
          <mxGeometry x="12" y="38.5" width="110" height="45" as="geometry" />
        </mxCell>
        <mxCell id="Rx21Ho5yi4vYeOvrqYfL-12" value="Soziale Elemente" style="swimlane;whiteSpace=wrap;html=1;fillColor=#FFFFFF;glass=0;shadow=0;strokeColor=#CCCCCC;fontSize=11;swimlaneLine=0;fontColor=#CCCCCC;" vertex="1" parent="Rx21Ho5yi4vYeOvrqYfL-1">
          <mxGeometry x="635" y="71" width="385" height="90" as="geometry">
            <mxRectangle x="635" y="71" width="133" height="26" as="alternateBounds" />
          </mxGeometry>
        </mxCell>
        <mxCell id="Rx21Ho5yi4vYeOvrqYfL-13" value="Soziale Interaktivität" style="rounded=0;whiteSpace=wrap;html=1;strokeColor=#CCCCCC;" vertex="1" parent="Rx21Ho5yi4vYeOvrqYfL-12">
          <mxGeometry x="135" y="35" width="117" height="45" as="geometry" />
        </mxCell>
        <mxCell id="Rx21Ho5yi4vYeOvrqYfL-14" value="Soziale Präsenz" style="rounded=0;whiteSpace=wrap;html=1;" vertex="1" parent="Rx21Ho5yi4vYeOvrqYfL-12">
          <mxGeometry x="263" y="35" width="110" height="45" as="geometry" />
        </mxCell>
        <mxCell id="Rx21Ho5yi4vYeOvrqYfL-15" value="Menschlichkeit" style="rounded=0;whiteSpace=wrap;html=1;" vertex="1" parent="Rx21Ho5yi4vYeOvrqYfL-12">
          <mxGeometry x="15" y="35" width="110" height="45" as="geometry" />
        </mxCell>
        <mxCell id="Rx21Ho5yi4vYeOvrqYfL-16" value="&amp;nbsp; &amp;nbsp; &amp;nbsp;Anwenderbezogene&lt;br style=&quot;border-color: var(--border-color); font-size: 11px;&quot;&gt;Elemente" style="swimlane;whiteSpace=wrap;html=1;startSize=30;fillColor=#FFFFFF;strokeColor=#CCCCCC;fontSize=11;swimlaneLine=0;fontColor=#CCCCCC;" vertex="1" parent="Rx21Ho5yi4vYeOvrqYfL-1">
          <mxGeometry x="962" y="200" width="133" height="147" as="geometry" />
        </mxCell>
        <mxCell id="Rx21Ho5yi4vYeOvrqYfL-17" value="Symbolische&lt;br&gt;Motivation" style="rounded=0;whiteSpace=wrap;html=1;strokeColor=#CCCCCC;" vertex="1" parent="Rx21Ho5yi4vYeOvrqYfL-16">
          <mxGeometry x="14.5" y="39" width="110" height="45" as="geometry" />
        </mxCell>
        <mxCell id="Rx21Ho5yi4vYeOvrqYfL-18" value="Hedonismus" style="rounded=0;whiteSpace=wrap;html=1;strokeColor=#CCCCCC;" vertex="1" parent="Rx21Ho5yi4vYeOvrqYfL-16">
          <mxGeometry x="14.5" y="91.75" width="110" height="45" as="geometry" />
        </mxCell>
        <mxCell id="Rx21Ho5yi4vYeOvrqYfL-19" value="&amp;nbsp; &amp;nbsp; &amp;nbsp;Systemische &lt;br style=&quot;font-size: 11px;&quot;&gt;Elemente" style="swimlane;whiteSpace=wrap;html=1;startSize=32;fillColor=#FFFFFF;strokeColor=#CCCCCC;fontSize=11;swimlaneLine=0;fontColor=#CCCCCC;" vertex="1" parent="Rx21Ho5yi4vYeOvrqYfL-1">
          <mxGeometry x="382" y="132" width="122" height="310" as="geometry">
            <mxRectangle x="349" y="138.75" width="125" height="41" as="alternateBounds" />
          </mxGeometry>
        </mxCell>
        <mxCell id="Rx21Ho5yi4vYeOvrqYfL-20" value="Qualität der Antworten" style="rounded=0;whiteSpace=wrap;html=1;" vertex="1" parent="Rx21Ho5yi4vYeOvrqYfL-19">
          <mxGeometry x="8.5" y="42.25" width="110" height="45" as="geometry" />
        </mxCell>
        <mxCell id="Rx21Ho5yi4vYeOvrqYfL-21" value="Lernfähigkeit" style="rounded=0;whiteSpace=wrap;html=1;" vertex="1" parent="Rx21Ho5yi4vYeOvrqYfL-19">
          <mxGeometry x="8.5" y="94.5" width="110" height="45" as="geometry" />
        </mxCell>
        <mxCell id="Rx21Ho5yi4vYeOvrqYfL-22" value="Persönliche&lt;br&gt;Empfehlungen" style="rounded=0;whiteSpace=wrap;html=1;strokeColor=#CCCCCC;" vertex="1" parent="Rx21Ho5yi4vYeOvrqYfL-19">
          <mxGeometry x="8.5" y="148.75" width="110" height="45" as="geometry" />
        </mxCell>
        <mxCell id="Rx21Ho5yi4vYeOvrqYfL-23" value="Alternative&amp;nbsp;&lt;br&gt;menschliche Serviceoptionen" style="rounded=0;whiteSpace=wrap;html=1;strokeColor=#CCCCCC;" vertex="1" parent="Rx21Ho5yi4vYeOvrqYfL-19">
          <mxGeometry x="8.5" y="202.25" width="110" height="45" as="geometry" />
        </mxCell>
        <mxCell id="Rx21Ho5yi4vYeOvrqYfL-24" value="Erreichbarkeit" style="rounded=0;whiteSpace=wrap;html=1;strokeColor=#CCCCCC;" vertex="1" parent="Rx21Ho5yi4vYeOvrqYfL-19">
          <mxGeometry x="7.5" y="255.25" width="110" height="45" as="geometry" />
        </mxCell>
        <mxCell id="Rx21Ho5yi4vYeOvrqYfL-29" style="edgeStyle=orthogonalEdgeStyle;rounded=0;orthogonalLoop=1;jettySize=auto;html=1;entryX=-0.003;entryY=0.212;entryDx=0;entryDy=0;entryPerimeter=0;strokeColor=#ababab;" edge="1" parent="Rx21Ho5yi4vYeOvrqYfL-1" source="Rx21Ho5yi4vYeOvrqYfL-11" target="Rx21Ho5yi4vYeOvrqYfL-2">
          <mxGeometry relative="1" as="geometry">
            <Array as="points">
              <mxPoint x="743" y="232" />
              <mxPoint x="743" y="267" />
            </Array>
          </mxGeometry>
        </mxCell>
        <mxCell id="Rx21Ho5yi4vYeOvrqYfL-30" style="edgeStyle=orthogonalEdgeStyle;rounded=0;orthogonalLoop=1;jettySize=auto;html=1;entryX=0;entryY=0.5;entryDx=0;entryDy=0;strokeWidth=1;strokeColor=#CCCCCC;" edge="1" parent="Rx21Ho5yi4vYeOvrqYfL-1" source="Rx21Ho5yi4vYeOvrqYfL-9" target="Rx21Ho5yi4vYeOvrqYfL-2">
          <mxGeometry relative="1" as="geometry" />
        </mxCell>
        <mxCell id="Rx21Ho5yi4vYeOvrqYfL-31" style="edgeStyle=orthogonalEdgeStyle;rounded=0;orthogonalLoop=1;jettySize=auto;html=1;entryX=0.25;entryY=0;entryDx=0;entryDy=0;strokeColor=#000000;fontSize=11;strokeWidth=2;" edge="1" parent="Rx21Ho5yi4vYeOvrqYfL-1" source="Rx21Ho5yi4vYeOvrqYfL-15" target="Rx21Ho5yi4vYeOvrqYfL-2">
          <mxGeometry relative="1" as="geometry">
            <Array as="points">
              <mxPoint x="715" y="203" />
              <mxPoint x="795" y="203" />
              <mxPoint x="795" y="248" />
              <mxPoint x="796" y="248" />
            </Array>
          </mxGeometry>
        </mxCell>
        <mxCell id="Rx21Ho5yi4vYeOvrqYfL-32" style="edgeStyle=orthogonalEdgeStyle;rounded=0;orthogonalLoop=1;jettySize=auto;html=1;strokeColor=#ababab;" edge="1" parent="Rx21Ho5yi4vYeOvrqYfL-1" source="Rx21Ho5yi4vYeOvrqYfL-13" target="Rx21Ho5yi4vYeOvrqYfL-2">
          <mxGeometry relative="1" as="geometry" />
        </mxCell>
        <mxCell id="Rx21Ho5yi4vYeOvrqYfL-33" style="edgeStyle=orthogonalEdgeStyle;rounded=0;orthogonalLoop=1;jettySize=auto;html=1;strokeColor=#000000;strokeWidth=2;" edge="1" parent="Rx21Ho5yi4vYeOvrqYfL-1" source="Rx21Ho5yi4vYeOvrqYfL-14" target="Rx21Ho5yi4vYeOvrqYfL-2">
          <mxGeometry relative="1" as="geometry">
            <Array as="points">
              <mxPoint x="947" y="202" />
              <mxPoint x="860" y="202" />
            </Array>
          </mxGeometry>
        </mxCell>
        <mxCell id="Rx21Ho5yi4vYeOvrqYfL-34" style="edgeStyle=orthogonalEdgeStyle;rounded=0;orthogonalLoop=1;jettySize=auto;html=1;entryX=0;entryY=0.75;entryDx=0;entryDy=0;strokeColor=#ababab;" edge="1" parent="Rx21Ho5yi4vYeOvrqYfL-1" source="Rx21Ho5yi4vYeOvrqYfL-10" target="Rx21Ho5yi4vYeOvrqYfL-2">
          <mxGeometry relative="1" as="geometry">
            <Array as="points">
              <mxPoint x="745" y="343" />
              <mxPoint x="745" y="304" />
            </Array>
          </mxGeometry>
        </mxCell>
        <mxCell id="Rx21Ho5yi4vYeOvrqYfL-35" style="edgeStyle=orthogonalEdgeStyle;rounded=0;orthogonalLoop=1;jettySize=auto;html=1;entryX=1;entryY=0.25;entryDx=0;entryDy=0;strokeWidth=1;strokeColor=#CCCCCC;" edge="1" parent="Rx21Ho5yi4vYeOvrqYfL-1" source="Rx21Ho5yi4vYeOvrqYfL-17" target="Rx21Ho5yi4vYeOvrqYfL-2">
          <mxGeometry relative="1" as="geometry">
            <Array as="points">
              <mxPoint x="894" y="270" />
            </Array>
          </mxGeometry>
        </mxCell>
        <mxCell id="Rx21Ho5yi4vYeOvrqYfL-36" style="edgeStyle=orthogonalEdgeStyle;rounded=0;orthogonalLoop=1;jettySize=auto;html=1;entryX=1;entryY=0.75;entryDx=0;entryDy=0;strokeWidth=1;fontColor=#CCCCCC;fontSize=10;strokeColor=#CCCCCC;" edge="1" parent="Rx21Ho5yi4vYeOvrqYfL-1" source="Rx21Ho5yi4vYeOvrqYfL-18" target="Rx21Ho5yi4vYeOvrqYfL-2">
          <mxGeometry relative="1" as="geometry">
            <Array as="points">
              <mxPoint x="924" y="305" />
            </Array>
          </mxGeometry>
        </mxCell>
        <mxCell id="Rx21Ho5yi4vYeOvrqYfL-37" style="edgeStyle=orthogonalEdgeStyle;rounded=0;orthogonalLoop=1;jettySize=auto;html=1;entryX=0.616;entryY=1.034;entryDx=0;entryDy=0;entryPerimeter=0;strokeColor=#ababab;" edge="1" parent="Rx21Ho5yi4vYeOvrqYfL-1" source="Rx21Ho5yi4vYeOvrqYfL-4" target="Rx21Ho5yi4vYeOvrqYfL-2">
          <mxGeometry relative="1" as="geometry">
            <Array as="points">
              <mxPoint x="896" y="405" />
              <mxPoint x="844" y="405" />
            </Array>
          </mxGeometry>
        </mxCell>
        <mxCell id="Rx21Ho5yi4vYeOvrqYfL-38" style="edgeStyle=orthogonalEdgeStyle;rounded=0;orthogonalLoop=1;jettySize=auto;html=1;entryX=0.808;entryY=0.994;entryDx=0;entryDy=0;entryPerimeter=0;strokeWidth=2;" edge="1" parent="Rx21Ho5yi4vYeOvrqYfL-1" source="Rx21Ho5yi4vYeOvrqYfL-7" target="Rx21Ho5yi4vYeOvrqYfL-2">
          <mxGeometry relative="1" as="geometry">
            <Array as="points">
              <mxPoint x="1010" y="386" />
              <mxPoint x="869" y="386" />
            </Array>
          </mxGeometry>
        </mxCell>
        <mxCell id="Rx21Ho5yi4vYeOvrqYfL-39" style="edgeStyle=orthogonalEdgeStyle;rounded=0;orthogonalLoop=1;jettySize=auto;html=1;entryX=0.25;entryY=1;entryDx=0;entryDy=0;exitX=0.5;exitY=0;exitDx=0;exitDy=0;strokeWidth=1;strokeColor=#CCCCCC;" edge="1" parent="Rx21Ho5yi4vYeOvrqYfL-1" source="Rx21Ho5yi4vYeOvrqYfL-6">
          <mxGeometry relative="1" as="geometry">
            <mxPoint x="650" y="450" as="sourcePoint" />
            <mxPoint x="796" y="324" as="targetPoint" />
            <Array as="points">
              <mxPoint x="650" y="386" />
              <mxPoint x="796" y="386" />
            </Array>
          </mxGeometry>
        </mxCell>
        <mxCell id="Rx21Ho5yi4vYeOvrqYfL-40" style="edgeStyle=orthogonalEdgeStyle;rounded=0;orthogonalLoop=1;jettySize=auto;html=1;entryX=0.423;entryY=1.024;entryDx=0;entryDy=0;entryPerimeter=0;strokeColor=#050505;strokeWidth=2;" edge="1" parent="Rx21Ho5yi4vYeOvrqYfL-1" source="Rx21Ho5yi4vYeOvrqYfL-5" target="Rx21Ho5yi4vYeOvrqYfL-2">
          <mxGeometry relative="1" as="geometry">
            <Array as="points">
              <mxPoint x="758" y="406" />
              <mxPoint x="818" y="406" />
            </Array>
          </mxGeometry>
        </mxCell>
        <mxCell id="Rx21Ho5yi4vYeOvrqYfL-41" value="-0,145" style="text;html=1;strokeColor=none;fillColor=none;align=center;verticalAlign=middle;whiteSpace=wrap;rounded=0;opacity=0;fontSize=12;strokeWidth=1;fontStyle=1" vertex="1" parent="Rx21Ho5yi4vYeOvrqYfL-1">
          <mxGeometry x="732.5" y="181" width="40" height="25" as="geometry" />
        </mxCell>
        <mxCell id="Rx21Ho5yi4vYeOvrqYfL-42" value="0,044" style="text;html=1;strokeColor=none;fillColor=none;align=center;verticalAlign=middle;whiteSpace=wrap;rounded=0;opacity=0;fontSize=10;" vertex="1" parent="Rx21Ho5yi4vYeOvrqYfL-1">
          <mxGeometry x="794" y="182" width="40" height="25" as="geometry" />
        </mxCell>
        <mxCell id="Rx21Ho5yi4vYeOvrqYfL-43" value="&lt;font style=&quot;font-size: 10px;&quot;&gt;-0,009&lt;/font&gt;" style="text;html=1;strokeColor=none;fillColor=none;align=center;verticalAlign=middle;whiteSpace=wrap;rounded=0;opacity=0;fontSize=20;" vertex="1" parent="Rx21Ho5yi4vYeOvrqYfL-1">
          <mxGeometry x="684" y="209" width="40" height="25" as="geometry" />
        </mxCell>
        <mxCell id="Rx21Ho5yi4vYeOvrqYfL-44" value="0,154" style="text;html=1;strokeColor=none;fillColor=none;align=center;verticalAlign=middle;whiteSpace=wrap;rounded=0;opacity=0;fontSize=12;fontStyle=1" vertex="1" parent="Rx21Ho5yi4vYeOvrqYfL-1">
          <mxGeometry x="887" y="180" width="40" height="25" as="geometry" />
        </mxCell>
        <mxCell id="Rx21Ho5yi4vYeOvrqYfL-45" value="&lt;font style=&quot;font-size: 10px;&quot;&gt;-0,037&lt;/font&gt;" style="text;html=1;strokeColor=none;fillColor=none;align=center;verticalAlign=middle;whiteSpace=wrap;rounded=0;opacity=0;fontSize=20;" vertex="1" parent="Rx21Ho5yi4vYeOvrqYfL-1">
          <mxGeometry x="683.5" y="319" width="40" height="25" as="geometry" />
        </mxCell>
        <mxCell id="Rx21Ho5yi4vYeOvrqYfL-46" value="&lt;font size=&quot;1&quot; style=&quot;&quot;&gt;0,034&lt;/font&gt;" style="text;html=1;strokeColor=none;fillColor=none;align=center;verticalAlign=middle;whiteSpace=wrap;rounded=0;opacity=0;fontSize=20;fontStyle=1" vertex="1" parent="Rx21Ho5yi4vYeOvrqYfL-1">
          <mxGeometry x="684" y="264" width="40" height="25" as="geometry" />
        </mxCell>
        <mxCell id="Rx21Ho5yi4vYeOvrqYfL-47" value="0,209" style="text;html=1;strokeColor=none;fillColor=none;align=center;verticalAlign=middle;whiteSpace=wrap;rounded=0;opacity=0;fontSize=12;fontStyle=1" vertex="1" parent="Rx21Ho5yi4vYeOvrqYfL-1">
          <mxGeometry x="768.5" y="383" width="40" height="25" as="geometry" />
        </mxCell>
        <mxCell id="Rx21Ho5yi4vYeOvrqYfL-48" value="&lt;font color=&quot;#000000&quot; style=&quot;font-size: 10px;&quot;&gt;0,056&lt;/font&gt;" style="text;html=1;strokeColor=none;fillColor=none;align=center;verticalAlign=middle;whiteSpace=wrap;rounded=0;opacity=0;fontSize=12;fontStyle=0;fontColor=#CCCCCC;" vertex="1" parent="Rx21Ho5yi4vYeOvrqYfL-1">
          <mxGeometry x="706" y="365" width="40" height="25" as="geometry" />
        </mxCell>
        <mxCell id="Rx21Ho5yi4vYeOvrqYfL-49" value="0,112" style="text;html=1;strokeColor=none;fillColor=none;align=center;verticalAlign=middle;whiteSpace=wrap;rounded=0;opacity=0;fontSize=10;fontStyle=0" vertex="1" parent="Rx21Ho5yi4vYeOvrqYfL-1">
          <mxGeometry x="847.5" y="385" width="40" height="25" as="geometry" />
        </mxCell>
        <mxCell id="Rx21Ho5yi4vYeOvrqYfL-50" value="-0,173" style="text;html=1;strokeColor=none;fillColor=none;align=center;verticalAlign=middle;whiteSpace=wrap;rounded=0;opacity=0;fontStyle=1;fontSize=12;" vertex="1" parent="Rx21Ho5yi4vYeOvrqYfL-1">
          <mxGeometry x="918.5" y="364" width="40" height="25" as="geometry" />
        </mxCell>
        <mxCell id="Rx21Ho5yi4vYeOvrqYfL-51" value="0,092" style="text;html=1;strokeColor=none;fillColor=none;align=center;verticalAlign=middle;whiteSpace=wrap;rounded=0;opacity=0;fontSize=10;fontStyle=0" vertex="1" parent="Rx21Ho5yi4vYeOvrqYfL-1">
          <mxGeometry x="915" y="284" width="40" height="25" as="geometry" />
        </mxCell>
        <mxCell id="Rx21Ho5yi4vYeOvrqYfL-52" value="0,086" style="text;html=1;strokeColor=none;fillColor=none;align=center;verticalAlign=middle;whiteSpace=wrap;rounded=0;opacity=0;fontSize=10;fontStyle=0" vertex="1" parent="Rx21Ho5yi4vYeOvrqYfL-1">
          <mxGeometry x="914.5" y="247" width="40" height="25" as="geometry" />
        </mxCell>
        <mxCell id="Rx21Ho5yi4vYeOvrqYfL-53" style="edgeStyle=orthogonalEdgeStyle;rounded=0;orthogonalLoop=1;jettySize=auto;html=1;entryX=0;entryY=0.5;entryDx=0;entryDy=0;strokeColor=#ababab;" edge="1" parent="Rx21Ho5yi4vYeOvrqYfL-1" source="Rx21Ho5yi4vYeOvrqYfL-24" target="Rx21Ho5yi4vYeOvrqYfL-9">
          <mxGeometry relative="1" as="geometry">
            <Array as="points">
              <mxPoint x="538" y="410" />
              <mxPoint x="538" y="287" />
            </Array>
          </mxGeometry>
        </mxCell>
        <mxCell id="Rx21Ho5yi4vYeOvrqYfL-54" style="edgeStyle=orthogonalEdgeStyle;rounded=0;orthogonalLoop=1;jettySize=auto;html=1;entryX=0;entryY=0.5;entryDx=0;entryDy=0;strokeColor=#CCCCCC;" edge="1" parent="Rx21Ho5yi4vYeOvrqYfL-1" source="Rx21Ho5yi4vYeOvrqYfL-23" target="Rx21Ho5yi4vYeOvrqYfL-9">
          <mxGeometry relative="1" as="geometry">
            <Array as="points">
              <mxPoint x="538" y="357" />
              <mxPoint x="538" y="287" />
            </Array>
          </mxGeometry>
        </mxCell>
        <mxCell id="Rx21Ho5yi4vYeOvrqYfL-55" style="edgeStyle=orthogonalEdgeStyle;rounded=0;orthogonalLoop=1;jettySize=auto;html=1;entryX=0;entryY=0.5;entryDx=0;entryDy=0;strokeWidth=1;strokeColor=#CCCCCC;" edge="1" parent="Rx21Ho5yi4vYeOvrqYfL-1" source="Rx21Ho5yi4vYeOvrqYfL-22" target="Rx21Ho5yi4vYeOvrqYfL-9">
          <mxGeometry relative="1" as="geometry">
            <Array as="points">
              <mxPoint x="538" y="303" />
              <mxPoint x="538" y="287" />
            </Array>
          </mxGeometry>
        </mxCell>
        <mxCell id="Rx21Ho5yi4vYeOvrqYfL-56" style="edgeStyle=orthogonalEdgeStyle;rounded=0;orthogonalLoop=1;jettySize=auto;html=1;entryX=0;entryY=0.5;entryDx=0;entryDy=0;strokeWidth=2;" edge="1" parent="Rx21Ho5yi4vYeOvrqYfL-1" source="Rx21Ho5yi4vYeOvrqYfL-21" target="Rx21Ho5yi4vYeOvrqYfL-9">
          <mxGeometry relative="1" as="geometry">
            <Array as="points">
              <mxPoint x="538" y="249" />
              <mxPoint x="538" y="287" />
            </Array>
          </mxGeometry>
        </mxCell>
        <mxCell id="Rx21Ho5yi4vYeOvrqYfL-57" style="edgeStyle=orthogonalEdgeStyle;rounded=0;orthogonalLoop=1;jettySize=auto;html=1;entryX=0;entryY=0.5;entryDx=0;entryDy=0;strokeWidth=2;" edge="1" parent="Rx21Ho5yi4vYeOvrqYfL-1" source="Rx21Ho5yi4vYeOvrqYfL-20" target="Rx21Ho5yi4vYeOvrqYfL-9">
          <mxGeometry relative="1" as="geometry">
            <Array as="points">
              <mxPoint x="538" y="197" />
              <mxPoint x="538" y="287" />
            </Array>
          </mxGeometry>
        </mxCell>
        <mxCell id="Rx21Ho5yi4vYeOvrqYfL-58" value="&lt;font style=&quot;font-size: 12px;&quot;&gt;0,379&lt;/font&gt;" style="text;html=1;strokeColor=none;fillColor=none;align=center;verticalAlign=middle;whiteSpace=wrap;rounded=0;opacity=0;fontSize=12;fontStyle=1" vertex="1" parent="Rx21Ho5yi4vYeOvrqYfL-1">
          <mxGeometry x="500.5" y="174" width="40" height="25" as="geometry" />
        </mxCell>
        <mxCell id="Rx21Ho5yi4vYeOvrqYfL-59" value="&lt;font style=&quot;font-size: 12px;&quot;&gt;0,203&lt;/font&gt;" style="text;html=1;strokeColor=none;fillColor=none;align=center;verticalAlign=middle;whiteSpace=wrap;rounded=0;opacity=0;fontSize=12;fontStyle=1" vertex="1" parent="Rx21Ho5yi4vYeOvrqYfL-1">
          <mxGeometry x="499.5" y="228" width="40" height="25" as="geometry" />
        </mxCell>
        <mxCell id="Rx21Ho5yi4vYeOvrqYfL-60" value="&lt;font style=&quot;font-size: 10px;&quot;&gt;0,110&lt;/font&gt;" style="text;html=1;strokeColor=none;fillColor=none;align=center;verticalAlign=middle;whiteSpace=wrap;rounded=0;opacity=0;fontSize=20;" vertex="1" parent="Rx21Ho5yi4vYeOvrqYfL-1">
          <mxGeometry x="501" y="333" width="40" height="25" as="geometry" />
        </mxCell>
        <mxCell id="Rx21Ho5yi4vYeOvrqYfL-61" value="&lt;font style=&quot;font-size: 10px;&quot;&gt;0,022&lt;/font&gt;" style="text;html=1;strokeColor=none;fillColor=none;align=center;verticalAlign=middle;whiteSpace=wrap;rounded=0;opacity=0;fontSize=20;" vertex="1" parent="Rx21Ho5yi4vYeOvrqYfL-1">
          <mxGeometry x="502" y="385" width="40" height="25" as="geometry" />
        </mxCell>
        <mxCell id="Rx21Ho5yi4vYeOvrqYfL-62" value="&lt;font style=&quot;font-size: 10px;&quot;&gt;0,093&lt;/font&gt;" style="text;html=1;strokeColor=none;fillColor=none;align=center;verticalAlign=middle;whiteSpace=wrap;rounded=0;opacity=0;fontSize=10;fontStyle=0" vertex="1" parent="Rx21Ho5yi4vYeOvrqYfL-1">
          <mxGeometry x="499.5" y="280.75" width="40" height="25" as="geometry" />
        </mxCell>
        <mxCell id="4y3JSuN0JnXyC57Re7Mp-0" value="&amp;nbsp; &amp;nbsp; moderierende Effekte" style="swimlane;whiteSpace=wrap;html=1;startSize=30;fillColor=#FFFFFF;dashed=1;strokeColor=#CCCCCC;" vertex="1" parent="Rx21Ho5yi4vYeOvrqYfL-1">
          <mxGeometry x="1118" y="199.5" width="143" height="148" as="geometry" />
        </mxCell>
        <mxCell id="4y3JSuN0JnXyC57Re7Mp-1" value="Bevorzugen menschlicher Interaktion" style="rounded=0;whiteSpace=wrap;html=1;strokeColor=#000000;" vertex="1" parent="4y3JSuN0JnXyC57Re7Mp-0">
          <mxGeometry x="16.5" y="92" width="110" height="45" as="geometry" />
        </mxCell>
        <mxCell id="4y3JSuN0JnXyC57Re7Mp-2" value="Nutzungs-&lt;br&gt;häufigkeit" style="rounded=0;whiteSpace=wrap;html=1;strokeColor=#000000;" vertex="1" parent="4y3JSuN0JnXyC57Re7Mp-0">
          <mxGeometry x="16.5" y="38" width="110" height="45" as="geometry" />
        </mxCell>
        <mxCell id="wMfbyhizEKM_oAubePZT-0" style="edgeStyle=orthogonalEdgeStyle;rounded=0;orthogonalLoop=1;jettySize=auto;html=1;dashed=1;exitX=0.5;exitY=1;exitDx=0;exitDy=0;strokeWidth=2;" edge="1" parent="Rx21Ho5yi4vYeOvrqYfL-1" source="4y3JSuN0JnXyC57Re7Mp-1">
          <mxGeometry relative="1" as="geometry">
            <mxPoint x="1193.04" y="350" as="sourcePoint" />
            <mxPoint x="735" y="288" as="targetPoint" />
            <Array as="points">
              <mxPoint x="1190" y="350" />
              <mxPoint x="1189" y="359" />
              <mxPoint x="692" y="359" />
            </Array>
          </mxGeometry>
        </mxCell>
        <mxCell id="wMfbyhizEKM_oAubePZT-1" value="0,251" style="text;html=1;strokeColor=none;fillColor=none;align=center;verticalAlign=middle;whiteSpace=wrap;rounded=0;opacity=0;fontStyle=1;fontSize=12;" vertex="1" parent="Rx21Ho5yi4vYeOvrqYfL-1">
          <mxGeometry x="1127" y="360" width="40" height="25" as="geometry" />
        </mxCell>
        <mxCell id="b1TGKfyw2vnqjG6csDei-0" style="edgeStyle=orthogonalEdgeStyle;rounded=0;orthogonalLoop=1;jettySize=auto;html=1;dashed=1;exitX=0;exitY=0.5;exitDx=0;exitDy=0;strokeWidth=2;" edge="1" parent="Rx21Ho5yi4vYeOvrqYfL-1" source="4y3JSuN0JnXyC57Re7Mp-2">
          <mxGeometry relative="1" as="geometry">
            <mxPoint x="1106" y="262" as="sourcePoint" />
            <mxPoint x="716" y="174.94" as="targetPoint" />
            <Array as="points">
              <mxPoint x="1104" y="260" />
              <mxPoint x="1104" y="175" />
            </Array>
          </mxGeometry>
        </mxCell>
        <mxCell id="b1TGKfyw2vnqjG6csDei-1" value="-0,173" style="text;html=1;strokeColor=none;fillColor=none;align=center;verticalAlign=middle;whiteSpace=wrap;rounded=0;opacity=0;fontStyle=1;fontSize=12;" vertex="1" parent="Rx21Ho5yi4vYeOvrqYfL-1">
          <mxGeometry x="1047" y="149" width="40" height="25" as="geometry" />
        </mxCell>
      </root>
    </mxGraphModel>
  </diagram>
</mxfile>
